<?xml version="1.0" standalone="no"?><!DOCTYPE svg PUBLIC "-//W3C//DTD SVG 1.1//EN" "http://www.w3.org/Graphics/SVG/1.1/DTD/svg11.dtd"><svg t="1752634834131" class="icon" viewBox="0 0 1024 1024" version="1.1" xmlns="http://www.w3.org/2000/svg" p-id="14069" xmlns:xlink="http://www.w3.org/1999/xlink" width="200" height="200"><path d="M865.92 582.144l-352.704 353.92-359.808-359.808C47.68 470.528 48.768 298.496 154.24 193.024a269.312 269.312 0 0 1 358.4-20.16c105.408-84.928 260.736-77.504 358.4 20.096 105.408 105.472 106.624 277.568 0.896 383.296-2.048 1.984-4.16 3.84-6.4 5.568l0.384 0.32zM199.488 238.272c-80.768 80.704-81.28 212.288-0.832 292.736l314.496 314.432 43.2-43.328-81.152-81.152 45.248-45.248 81.024 81.088 28.864-28.928-80.064-80.064 45.248-45.248 80 80 27.456-27.52-79.296-79.296 45.312-45.248 79.168 79.168 33.792-33.92-178.56-178.56a32 32 0 0 0-45.248 0L461.888 493.568a96.128 96.128 0 0 1-136-136L465.792 217.6a205.376 205.376 0 0 0-266.24 20.672z m626.304 0c-79.808-79.808-209.792-80.384-289.28-0.96L371.2 402.752a32.128 32.128 0 0 0 45.44 45.44L512.896 352a96 96 0 0 1 135.68 0l178.56 178.56c80-80.512 79.232-211.712-1.344-292.288z" fill="#7204a3" fill-opacity=".9" p-id="14070"></path></svg>