<?xml version="1.0" standalone="no"?><!DOCTYPE svg PUBLIC "-//W3C//DTD SVG 1.1//EN" "http://www.w3.org/Graphics/SVG/1.1/DTD/svg11.dtd"><svg t="1752635028916" class="icon" viewBox="0 0 1024 1024" version="1.1" xmlns="http://www.w3.org/2000/svg" p-id="19599" xmlns:xlink="http://www.w3.org/1999/xlink" width="200" height="200"><path d="M380.40790625 133.060625c12.7996875 0 23.145 10.56 23.145 23.5190625v260.251875c0 12.96-10.3453125 23.465625-23.145 23.465625H123.99509375a23.4121875 23.4121875 0 0 1-23.1984375-23.465625V156.5796875c0-12.9590625 10.3996875-23.465625 23.1984375-23.465625h256.4128125z m0-69.8625H123.99509375c-24.4246875 0-47.784375 9.86625-65.0625 27.4125A94.074375 94.074375 0 0 0 32.00009375 156.57875v260.251875c0 24.7453125 9.7059375 48.530625 26.9315625 65.97 17.278125 17.5453125 40.6378125 27.358125 65.0625 27.358125h256.4128125c50.82375 0 91.995-41.810625 91.995-93.328125V156.5796875c0-24.7453125-9.7059375-48.530625-26.9315625-65.97a91.30125 91.30125 0 0 0-65.0634375-27.358125zM751.64103125 101.8625a22.93125 22.93125 0 0 1 16.3725 6.9328125L916.32509375 259.2940625c9.065625 9.1725 9.065625 24.0515625 0 33.2784375L768.06603125 443.0703125a22.93125 22.93125 0 0 1-32.7975 0l-148.3125-150.55125a23.7853125 23.7853125 0 0 1 0-33.2784375L735.21509375 108.7953125a22.93125 22.93125 0 0 1 16.425-6.9328125z m0-69.8090625c-24.425625 0-47.784375 9.8128125-65.0634375 27.358125L538.31946875 209.9103125a94.074375 94.074375 0 0 0-26.9859375 65.9690625c0 24.79875 9.706875 48.530625 26.9325 66.0234375l148.3115625 150.55125a91.035 91.035 0 0 0 130.1259375 0L964.96259375 341.95625c17.278125-17.54625 26.985-41.278125 26.985-66.0234375 0-24.7453125-9.706875-48.530625-26.9325-66.0225L816.70353125 59.4115625a91.035 91.035 0 0 0-65.0625-27.358125z m-371.233125 582.9c12.7996875 0 23.145 10.5065625 23.145 23.465625V898.671875c0 12.9590625-10.3453125 23.465625-23.145 23.465625H123.99509375a23.35875 23.35875 0 0 1-23.1984375-23.465625V638.42c0-12.96 10.3996875-23.465625 23.1984375-23.465625h256.4128125z m0-69.8625H123.99509375c-24.4246875 0-47.784375 9.81375-65.0625 27.305625A94.074375 94.074375 0 0 0 32.00009375 638.42V898.671875C32.00009375 950.189375 73.17134375 992 123.99509375 992h256.4128125c24.3721875 0 47.784375-9.8128125 65.0625-27.358125 17.2265625-17.4928125 26.9325-41.2246875 26.9325-65.97V638.42c0-24.7453125-9.7059375-48.530625-26.9315625-66.0234375a91.30125 91.30125 0 0 0-65.0634375-27.3046875z m477.09375 69.8625c12.79875 0 23.145 10.5065625 23.145 23.465625V898.671875c0 12.9590625-10.34625 23.465625-23.145 23.465625H601.03446875a23.35875 23.35875 0 0 1-23.1984375-23.465625V638.42c0-12.96 10.3996875-23.465625 23.1984375-23.465625h256.4128125z m0-69.8625H601.03446875c-24.4246875 0-47.784375 9.81375-65.0625 27.305625a94.074375 94.074375 0 0 0-26.9325 66.0234375V898.671875c0 51.5175 41.17125 93.328125 91.995 93.328125h256.4128125c50.7703125 0 91.995-41.810625 91.995-93.328125V638.42c0-24.7453125-9.7059375-48.530625-26.985-66.0234375a91.30125 91.30125 0 0 0-65.0634375-27.3046875z" p-id="19600" fill="#7204a3"></path></svg>