<?xml version="1.0" standalone="no"?><!DOCTYPE svg PUBLIC "-//W3C//DTD SVG 1.1//EN" "http://www.w3.org/Graphics/SVG/1.1/DTD/svg11.dtd"><svg t="1752634601471" class="icon" viewBox="0 0 1024 1024" version="1.1" xmlns="http://www.w3.org/2000/svg" p-id="9273" xmlns:xlink="http://www.w3.org/1999/xlink" width="200" height="200"><path d="M543.857778 975.644444a1396.622222 1396.622222 0 0 1-235.52-17.635555 364.088889 364.088889 0 0 1-76.8-20.48c-30.151111-12.515556-44.942222-30.151111-44.942222-52.337778s14.791111-40.391111 44.942222-52.906667a364.088889 364.088889 0 0 1 76.8-20.48A1396.622222 1396.622222 0 0 1 543.857778 796.444444a1396.622222 1396.622222 0 0 1 235.52 17.635556 364.088889 364.088889 0 0 1 76.8 20.48c30.151111 12.515556 45.511111 30.72 45.511111 52.906667s-15.36 39.822222-45.511111 52.337777a364.088889 364.088889 0 0 1-76.8 20.48 1396.622222 1396.622222 0 0 1-235.52 15.36z m-265.671111-90.453333a486.968889 486.968889 0 0 0 63.146666 12.515556 1418.24 1418.24 0 0 0 202.524445 12.515555 1426.773333 1426.773333 0 0 0 203.093333-13.084444 474.453333 474.453333 0 0 0 62.577778-12.515556 455.111111 455.111111 0 0 0-62.577778-13.084444 1426.773333 1426.773333 0 0 0-203.093333-13.084445 1418.24 1418.24 0 0 0-202.524445 13.653334 468.195556 468.195556 0 0 0-63.146666 13.084444z" fill="#7204a3" p-id="9274"></path><path d="M543.857778 879.502222a218.453333 218.453333 0 0 1-97.28-39.822222A695.182222 695.182222 0 0 1 325.973333 739.555556a625.777778 625.777778 0 0 1-108.657777-150.755556A427.235556 427.235556 0 0 1 170.666667 398.222222a294.115556 294.115556 0 0 1 28.444444-131.413333 333.937778 333.937778 0 0 1 81.351111-104.675556 398.222222 398.222222 0 0 1 263.395556-95.573333 402.204444 402.204444 0 0 1 263.395555 95.004444 341.333333 341.333333 0 0 1 81.351111 105.244445A294.115556 294.115556 0 0 1 918.755556 398.222222a419.84 419.84 0 0 1-48.355556 191.715556A593.92 593.92 0 0 1 761.742222 739.555556a674.702222 674.702222 0 0 1-120.604444 100.124444 218.453333 218.453333 0 0 1-97.28 39.822222z m0-748.088889c-170.666667 0-309.475556 119.466667-309.475556 265.671111a451.697778 451.697778 0 0 0 137.671111 296.391112 611.555556 611.555556 0 0 0 108.657778 90.453333 175.217778 175.217778 0 0 0 63.146667 30.151111 175.217778 175.217778 0 0 0 63.715555-30.151111 632.035556 632.035556 0 0 0 108.657778-90.453333A455.111111 455.111111 0 0 0 853.333333 398.222222c0-147.342222-138.24-266.808889-309.475555-266.808889z" fill="#7204a3" p-id="9275"></path><path d="M554.666667 618.382222h-3.982223a32.426667 32.426667 0 0 1-27.875555-25.6l-42.097778-210.488889-30.72 84.195556a31.857778 31.857778 0 0 1-30.151111 21.617778H337.351111A31.857778 31.857778 0 0 1 304.924444 455.111111a32.426667 32.426667 0 0 1 32.426667-32.426667H398.222222l62.577778-173.511111a32.426667 32.426667 0 0 1 62.577778 4.551111l45.511111 227.555556 48.355555-104.675556a31.857778 31.857778 0 0 1 29.013334-18.773333 32.995556 32.995556 0 0 1 29.013333 17.635556l24.462222 47.217777h52.337778a32.995556 32.995556 0 0 1 32.426667 32.426667 32.426667 32.426667 0 0 1-32.426667 32.426667h-73.386667a32.426667 32.426667 0 0 1-29.013333-17.635556l-2.844444-5.688889-62.577778 134.826667a33.564444 33.564444 0 0 1-29.582222 19.342222z" fill="#7204a3" p-id="9276"></path></svg>