<svg width="92" height="26" viewBox="0 0 92 26" fill="none" xmlns="http://www.w3.org/2000/svg">
<g clip-path="url(#clip0_2167_1553)">
<path d="M2.89673 1.55595L0.666801 12.1185C0.650435 12.1916 0.752725 12.22 0.781366 12.151L4.59066 2.59595C4.79933 2.07595 4.65204 1.48283 4.2306 1.11314C3.76415 0.706891 3.02766 0.950641 2.90082 1.55595H2.89673Z" fill="url(#paint0_linear_2167_1553)"/>
<path d="M5.81396 0.861255L1.80008 10.8916C1.77144 10.9606 1.86964 11.0053 1.90647 10.9444L7.30331 2.17344C7.5979 1.69407 7.55699 1.08469 7.20102 0.650005C6.80822 0.17063 6.04309 0.28438 5.81396 0.861255Z" fill="url(#paint1_linear_2167_1553)"/>
<path d="M12.6715 3.56282C12.6919 3.52626 12.7124 3.48563 12.7328 3.44907C14.0994 0.755633 10.1633 -1.4178 8.55939 1.14157L1.30905 12.8334L0.83851 13.6906L0.703487 13.975V13.9913C0.343424 14.8119 0.114294 15.7056 0.0324615 16.6522C-0.348059 21.0153 2.70838 25.0291 7.0414 25.8538C11.313 26.6703 15.8466 24.0744 17.1354 19.6016C17.3155 18.9759 16.8613 18.3463 16.2066 18.3056H13.858C13.412 18.2731 12.9988 18.5331 12.8392 18.9475C12.0495 21.0072 10.016 21.9984 8.07658 21.7263C5.27791 21.3322 3.46533 18.4153 4.63962 15.6203C5.39248 13.8328 7.27462 12.7888 9.21405 13.0244C11.1535 13.26 12.5855 14.5316 13.0111 16.2825C13.1175 16.7172 13.498 17.0259 13.9481 17.0544L16.1862 17.0625C16.849 17.1031 17.3686 16.5181 17.2623 15.8722C16.6444 12.1469 13.9603 9.40876 9.91781 8.84407C9.56593 8.79532 9.14449 8.75063 9.34498 8.77907L10.8057 6.46345C11.1944 5.8622 12.1232 4.50938 12.6796 3.57095L12.6715 3.56282Z" fill="url(#paint2_linear_2167_1553)"/>
<path d="M10.9698 18.0131L8.16296 19.894C7.99111 20.0078 7.77425 20.0362 7.58195 19.959C7.33645 19.8575 7.19324 19.6259 7.19324 19.3862L7.18506 15.6487C7.18506 15.4253 7.29962 15.2181 7.49193 15.1084C7.70879 14.9865 7.95837 15.0028 8.15068 15.1287L10.9616 16.9894C11.1335 17.1031 11.248 17.294 11.248 17.5012C11.248 17.7165 11.1417 17.9075 10.9739 18.0172L10.9698 18.0131Z" fill="url(#paint3_linear_2167_1553)"/>
<path d="M20.7939 23.2213L20.9248 24.2369C20.9289 24.2857 20.9085 24.3141 20.8553 24.3182L20.8103 24.3263C20.7612 24.3304 20.7325 24.3101 20.7284 24.2572L20.6016 23.2416C20.5975 23.1929 20.6179 23.1644 20.6711 23.1604L20.7161 23.1522C20.7652 23.1482 20.7898 23.1685 20.7939 23.2213ZM21.334 22.6647V24.1638C21.334 24.5091 21.2931 24.8219 21.2071 25.1022C21.1212 25.3785 20.9944 25.6426 20.8184 25.8904C20.7816 25.9391 20.7407 25.9432 20.6957 25.9026L20.6507 25.8741C20.6057 25.8376 20.6016 25.7929 20.6343 25.7482C20.7939 25.5288 20.9085 25.2891 20.9862 25.0372C21.0598 24.7854 21.0967 24.4969 21.0967 24.1719V22.6729C21.0967 22.6119 21.1253 22.5835 21.1867 22.5835H21.2399C21.3012 22.5835 21.3299 22.6119 21.3299 22.6729L21.334 22.6647ZM21.4158 24.8747L21.69 25.4069C21.7186 25.4557 21.7104 25.4963 21.6613 25.5247L21.6163 25.5491C21.5672 25.5776 21.5263 25.5694 21.4976 25.5207L21.2235 24.9844C21.1949 24.9357 21.2071 24.8951 21.2521 24.8666L21.2972 24.8422C21.3503 24.8138 21.3913 24.826 21.4158 24.8747ZM21.694 23.5504V23.6194C21.694 23.6763 21.6654 23.7047 21.6122 23.7047H21.3053C21.2481 23.7047 21.2194 23.6763 21.2194 23.6154V23.5585C21.2194 23.4976 21.2481 23.4691 21.3053 23.4691H21.6122C21.6695 23.4691 21.694 23.4976 21.694 23.5504ZM24.0508 24.5701V24.6229C24.0508 24.6716 24.0263 24.7001 23.9731 24.7001H21.7309C21.6818 24.7001 21.6572 24.6757 21.6572 24.6229V24.5701C21.6572 24.5213 21.6818 24.4969 21.7309 24.4969H23.9731C24.0222 24.4969 24.0508 24.5213 24.0508 24.5701ZM22.2791 24.5904L22.316 24.6147C22.3405 24.6229 22.3528 24.6391 22.3569 24.6554C22.361 24.6716 22.3569 24.6919 22.3405 24.7163C22.2219 24.9194 22.0418 25.0901 21.8045 25.2322C21.7595 25.2566 21.7268 25.2485 21.7063 25.2079L21.6818 25.1632C21.6572 25.1226 21.6654 25.0901 21.7063 25.0657C21.8168 24.9966 21.9109 24.9235 21.9927 24.8463C22.0705 24.7691 22.1278 24.6919 22.1646 24.6269C22.1891 24.5822 22.226 24.5701 22.2751 24.5944L22.2791 24.5904ZM22.5246 25.4394L22.5492 25.4841C22.5778 25.5288 22.5696 25.5613 22.5246 25.5938C22.4101 25.6669 22.2955 25.7319 22.1769 25.7888C22.0582 25.8457 21.9518 25.8863 21.8536 25.9147C21.8045 25.931 21.7677 25.9147 21.7513 25.8701L21.7391 25.8172C21.7227 25.7685 21.7391 25.7319 21.7882 25.7116C22.0009 25.6507 22.2055 25.5491 22.4101 25.4151C22.4592 25.3907 22.496 25.3988 22.5287 25.4394H22.5246ZM23.9444 24.0744V24.1191C23.9444 24.1679 23.9199 24.1963 23.8667 24.1963H21.8372C21.7881 24.1963 21.7595 24.1719 21.7595 24.1191V24.0744C21.7595 24.0257 21.7841 24.0013 21.8372 24.0013H23.8667C23.9158 24.0013 23.9444 24.0257 23.9444 24.0744ZM21.9682 22.6647H23.7358C23.838 22.6647 23.8872 22.7135 23.8872 22.8151V23.5626C23.8872 23.6641 23.838 23.7129 23.7358 23.7129H21.9682C21.8659 23.7129 21.8168 23.6641 21.8168 23.5626V22.8151C21.8168 22.7135 21.8659 22.6647 21.9682 22.6647ZM23.7726 23.1726V23.2091C23.7726 23.2579 23.748 23.2822 23.6989 23.2822H22.0009C21.9559 23.2822 21.9314 23.2579 21.9314 23.2091V23.1726C21.9314 23.1238 21.9559 23.0994 22.0009 23.0994H23.6989C23.748 23.0994 23.7726 23.1238 23.7726 23.1726ZM23.6539 22.8516H22.0459V23.526H23.6539V22.8516ZM22.2996 24.9682L22.4346 25.216C22.4633 25.2647 22.451 25.3013 22.406 25.3257L22.361 25.3501C22.316 25.3785 22.2791 25.3663 22.2505 25.3176L22.1114 25.0738C22.0868 25.0251 22.0991 24.9885 22.1441 24.9601L22.1891 24.9357C22.2341 24.9113 22.271 24.9235 22.2996 24.9682ZM22.5083 23.7047V24.501C22.5083 24.5579 22.4796 24.5822 22.4264 24.5822H22.3651C22.3078 24.5822 22.2832 24.5538 22.2832 24.501V23.7047C22.2832 23.6479 22.3119 23.6235 22.3651 23.6235H22.4264C22.4837 23.6235 22.5083 23.6519 22.5083 23.7047ZM22.9706 24.956V25.8497C22.9706 25.9554 22.9174 26.0082 22.807 26.0082H22.5696C22.5124 26.0082 22.4878 25.9797 22.4878 25.9269V25.8741C22.4878 25.8172 22.5165 25.7929 22.5696 25.7929H22.7456V24.956C22.7456 24.8991 22.7742 24.8707 22.8315 24.8707H22.8847C22.942 24.8707 22.9706 24.8991 22.9706 24.956ZM23.6171 25.606C23.7276 25.6588 23.8217 25.6954 23.9035 25.7157C23.9526 25.736 23.969 25.7726 23.9485 25.8213L23.9403 25.8741C23.9199 25.9229 23.8831 25.9351 23.834 25.9147C23.5926 25.8335 23.3716 25.7238 23.1711 25.5938C23.1261 25.5654 23.1179 25.5329 23.1466 25.4882L23.1711 25.4435C23.1998 25.4029 23.2366 25.3907 23.2857 25.4191C23.3962 25.4882 23.5066 25.5532 23.6171 25.606ZM23.4207 23.7088V24.5051C23.4207 24.5619 23.3921 24.5863 23.3389 24.5863H23.2775C23.2202 24.5863 23.1916 24.5579 23.1916 24.5051V23.7088C23.1916 23.6519 23.2202 23.6276 23.2775 23.6276H23.3389C23.3962 23.6276 23.4207 23.656 23.4207 23.7088ZM23.5844 25.0738L23.4453 25.3176C23.4207 25.3663 23.3839 25.3785 23.3348 25.3501L23.2898 25.3257C23.2407 25.3013 23.2325 25.2647 23.2611 25.216L23.4002 24.9682C23.4248 24.9194 23.4616 24.9113 23.5107 24.9357L23.5557 24.9601C23.6007 24.9885 23.613 25.0251 23.5844 25.0738ZM23.478 24.5904C23.478 24.5904 23.5107 24.6066 23.523 24.6229C23.5844 24.7204 23.658 24.8097 23.7439 24.8829C23.8258 24.9601 23.9117 25.021 23.9976 25.0697C24.0385 25.0941 24.0508 25.1266 24.0222 25.1672L23.9976 25.2119C23.9731 25.2566 23.9362 25.2607 23.8912 25.2363C23.7767 25.1672 23.6744 25.0901 23.5803 25.0007C23.4862 24.9113 23.4084 24.8179 23.3511 24.7163C23.3266 24.6757 23.3348 24.6432 23.3798 24.6188L23.4166 24.5944C23.4166 24.5944 23.4575 24.5822 23.4739 24.5863L23.478 24.5904Z" fill="white"/>
<path d="M32.2954 25.1551C32.2668 25.3907 32.2218 25.6019 32.1645 25.7929C32.1522 25.8498 32.1195 25.866 32.0663 25.8538L32.0213 25.8376C31.9681 25.8213 31.9476 25.7888 31.964 25.7319C31.9926 25.6223 32.0213 25.5166 32.0417 25.411C32.0622 25.3054 32.0745 25.2119 32.0827 25.1348C32.0908 25.0779 32.1236 25.0535 32.1768 25.0616L32.2218 25.0698C32.2791 25.0738 32.3036 25.1023 32.2995 25.1551H32.2954ZM33.797 24.6676V24.7204C33.797 24.7773 33.7684 24.8016 33.7152 24.8016H32.0458C31.9885 24.8016 31.964 24.7732 31.964 24.7204V24.6676C31.964 24.6107 31.9926 24.5863 32.0458 24.5863H33.7152C33.7725 24.5863 33.797 24.6148 33.797 24.6676ZM33.7807 22.941V22.9938C33.7807 23.0507 33.7561 23.0751 33.7029 23.0751H32.0622C32.0049 23.0751 31.9804 23.0466 31.9804 22.9938V22.941C31.9804 22.8841 32.009 22.8598 32.0622 22.8598H33.7029C33.7561 22.8598 33.7807 22.8882 33.7807 22.941ZM33.7234 23.5504V23.6032C33.7234 23.6601 33.6988 23.6844 33.6457 23.6844H32.1195C32.0663 23.6844 32.0417 23.656 32.0417 23.6032V23.5504C32.0417 23.4935 32.0663 23.4691 32.1195 23.4691H33.6457C33.6988 23.4691 33.7234 23.4976 33.7234 23.5504ZM33.6743 24.0866V24.1313C33.6743 24.1882 33.6456 24.2126 33.5925 24.2126H32.1727C32.1154 24.2126 32.0908 24.1841 32.0908 24.1313V24.0866C32.0908 24.0298 32.1195 24.0054 32.1727 24.0054H33.5925C33.6497 24.0054 33.6743 24.0338 33.6743 24.0866ZM33.0115 24.7813V25.7807C33.0115 25.8376 32.9951 25.8782 32.9664 25.9066C32.9378 25.9351 32.8969 25.9473 32.8437 25.9473H32.5614C32.5041 25.9473 32.4754 25.9188 32.4754 25.8619V25.8091C32.4754 25.7523 32.5041 25.7279 32.5614 25.7279H32.7823V24.7813C32.7823 24.7204 32.811 24.6919 32.8682 24.6919H32.9214C32.9828 24.6919 33.0115 24.7204 33.0115 24.7813ZM32.9951 22.6688V23.4813C32.9951 23.5423 32.9664 23.5707 32.9051 23.5707H32.8519C32.7905 23.5707 32.7619 23.5423 32.7619 23.4813V22.6688C32.7619 22.6079 32.7905 22.5794 32.8519 22.5794H32.9051C32.9664 22.5794 32.9951 22.6079 32.9951 22.6688ZM33.662 25.1307C33.6907 25.3176 33.7275 25.4963 33.7807 25.6588C33.7929 25.7157 33.7725 25.7482 33.7234 25.7604L33.6784 25.7807C33.6252 25.7969 33.5925 25.7807 33.5761 25.7238C33.5434 25.6223 33.5147 25.5207 33.4984 25.4191C33.4779 25.3176 33.4656 25.2282 33.4574 25.151C33.4493 25.0982 33.4738 25.0698 33.5311 25.0657L33.5761 25.0576C33.6293 25.0535 33.6579 25.0779 33.6661 25.1307H33.662ZM34.6931 23.7129V24.0704C34.6931 24.4482 34.6358 24.7854 34.5213 25.0901C34.4067 25.3948 34.2226 25.671 33.973 25.9229C33.928 25.9676 33.8871 25.9676 33.8461 25.9229L33.8175 25.8863C33.7766 25.8457 33.7766 25.801 33.8175 25.7563C34.0466 25.5288 34.2103 25.2769 34.3126 25.0048C34.4108 24.7326 34.464 24.4238 34.464 24.0744V23.7169C34.464 23.656 34.4926 23.6276 34.554 23.6276H34.6072C34.6686 23.6276 34.6972 23.656 34.6972 23.7169L34.6931 23.7129ZM34.2471 22.6607V22.9938H35.1473C35.2618 22.9938 35.3191 23.0507 35.3191 23.1644V23.6073C35.3191 23.6682 35.2905 23.6966 35.2291 23.6966H35.1759C35.1145 23.6966 35.0859 23.6682 35.0859 23.6073V23.2294H34.1857C34.0712 23.2294 34.0139 23.1726 34.0139 23.0588V22.6566C34.0139 22.5957 34.0425 22.5673 34.1039 22.5673H34.1571C34.2185 22.5673 34.2471 22.5957 34.2471 22.6566V22.6607ZM34.6972 24.1638C34.7054 24.4969 34.7586 24.7935 34.8568 25.0576C34.955 25.3216 35.1145 25.5532 35.3314 25.7563C35.3723 25.801 35.3723 25.8457 35.3314 25.8863L35.3028 25.9229C35.2577 25.9676 35.2127 25.9676 35.1759 25.9229C34.9304 25.6832 34.7504 25.4151 34.6358 25.1226C34.5213 24.8301 34.464 24.5091 34.4599 24.1679C34.4558 24.1069 34.4844 24.0744 34.5458 24.0744H34.599C34.6563 24.0744 34.689 24.1029 34.6931 24.1638H34.6972Z" fill="white"/>
<path d="M44.3003 23.2619C44.3331 23.3025 44.3331 23.3635 44.3003 23.4407C44.2103 23.7047 44.0835 23.9688 43.9198 24.2247C43.7562 24.4807 43.5679 24.7163 43.3511 24.9316C43.3102 24.9763 43.2693 24.9763 43.2242 24.9316L43.1874 24.895C43.1465 24.8544 43.1465 24.8138 43.1874 24.765C43.3879 24.566 43.5598 24.3507 43.7112 24.1272C43.8585 23.9038 43.9771 23.6722 44.063 23.4407H43.3184C43.257 23.4407 43.2242 23.4082 43.2242 23.3472V23.2944C43.2242 23.2335 43.257 23.201 43.3184 23.201H44.1326C44.2144 23.201 44.2717 23.2213 44.3044 23.2619H44.3003ZM43.8134 22.616L43.9771 22.9491C44.0057 23.006 43.9935 23.0466 43.9403 23.075L43.8871 23.0954C43.8298 23.1238 43.7889 23.1116 43.7602 23.0588L43.5925 22.7257C43.5639 22.6688 43.5802 22.6282 43.6334 22.5997L43.6866 22.5754C43.7439 22.5469 43.7848 22.5591 43.8134 22.6119V22.616ZM43.9689 24.2247V25.8822C43.9689 25.9432 43.9362 25.9757 43.8748 25.9757H43.8216C43.7602 25.9757 43.7316 25.9432 43.7316 25.8822V24.2247C43.7316 24.1638 43.7602 24.1313 43.8216 24.1313H43.8748C43.9362 24.1313 43.9689 24.1638 43.9689 24.2247ZM44.2922 24.3547L44.5213 24.7285C44.5499 24.7772 44.5377 24.8179 44.4886 24.8463L44.4436 24.8747C44.3945 24.8991 44.3535 24.8869 44.329 24.8422L44.0999 24.4644C44.0712 24.4157 44.0835 24.3791 44.1326 24.3507L44.1776 24.3222C44.2267 24.2938 44.2676 24.306 44.2922 24.3547ZM45.7038 23.3432V23.9241C45.7038 24.3588 45.6178 24.7488 45.4419 25.0941C45.266 25.4394 44.9836 25.7116 44.5949 25.9188C44.5377 25.9472 44.4967 25.935 44.4722 25.8822L44.4436 25.8294C44.419 25.7725 44.4354 25.7319 44.4886 25.7035C44.8363 25.5166 45.0859 25.2769 45.2414 24.9763C45.3928 24.6757 45.4705 24.3263 45.4705 23.9241V23.3432C45.4705 23.2822 45.4992 23.2497 45.5606 23.2497H45.6138C45.6751 23.2497 45.7038 23.2822 45.7038 23.3432ZM46.4975 22.9085V24.8219C46.4975 24.8829 46.4648 24.9113 46.4034 24.9113H46.3502C46.2889 24.9113 46.2602 24.8829 46.2602 24.8219V22.9613H44.9305V24.8219C44.9305 24.8829 44.8977 24.9113 44.8363 24.9113H44.7832C44.7218 24.9113 44.6931 24.8829 44.6931 24.8219V22.9085C44.6931 22.7947 44.7504 22.7379 44.865 22.7379H46.3298C46.4444 22.7379 46.5016 22.7947 46.5016 22.9085H46.4975ZM46.0393 24.826V25.6994H46.6203C46.6817 25.6994 46.7103 25.7319 46.7103 25.7929V25.8457C46.7103 25.9066 46.6817 25.935 46.6203 25.935H45.9779C45.9206 25.935 45.8756 25.9229 45.847 25.8944C45.8183 25.866 45.802 25.8254 45.802 25.7644V24.8219C45.802 24.761 45.8347 24.7325 45.8961 24.7325H45.9493C46.0106 24.7325 46.0393 24.761 46.0393 24.8219V24.826Z" fill="white"/>
<path d="M54.9263 24.436L54.7421 25.1104C54.7258 25.1673 54.693 25.1876 54.6358 25.1713L54.5908 25.1592C54.5335 25.1429 54.513 25.1104 54.5294 25.0576L54.7135 24.3832C54.7299 24.3263 54.7626 24.306 54.8199 24.3223L54.8649 24.3345C54.9222 24.3507 54.9426 24.3832 54.9263 24.436ZM56.1619 24.3426C56.1619 24.3426 56.1824 24.3832 56.1824 24.4076C56.1578 24.6879 56.0842 24.9438 55.9574 25.1713C55.8305 25.3988 55.6546 25.5857 55.4377 25.7279C55.2168 25.8701 54.9631 25.9554 54.6685 25.9838C54.6439 25.992 54.6235 25.9838 54.6071 25.9717C54.5908 25.9554 54.5826 25.9351 54.5785 25.9107L54.5703 25.8579C54.5703 25.801 54.5948 25.7685 54.648 25.7604C54.9099 25.7279 55.1349 25.6467 55.3272 25.5248C55.5196 25.4029 55.6668 25.2404 55.7732 25.0454C55.8796 24.8504 55.941 24.6351 55.9574 24.3913C55.9614 24.3345 55.9942 24.3101 56.0474 24.3101L56.1006 24.3182C56.1251 24.3182 56.1456 24.3263 56.1619 24.3426ZM54.8485 22.9532V23.7698L56.0883 23.7576C56.1497 23.7576 56.1783 23.786 56.1783 23.8429V23.8957C56.1783 23.9567 56.1497 23.9851 56.0883 23.9851L54.7912 23.9973C54.7421 23.9973 54.7012 23.9851 54.6726 23.9567C54.6439 23.9282 54.6276 23.8876 54.6276 23.8348V22.9492C54.6276 22.8923 54.6562 22.8679 54.7094 22.8679H54.7626C54.8199 22.8679 54.8444 22.8963 54.8444 22.9492L54.8485 22.9532ZM55.495 23.912V25.1023C55.495 25.1592 55.4664 25.1835 55.4132 25.1835H55.36C55.3027 25.1835 55.2781 25.1551 55.2781 25.1023V23.912C55.2781 23.8551 55.3068 23.8307 55.36 23.8307H55.4132C55.4704 23.8307 55.495 23.8592 55.495 23.912ZM55.5727 22.6648V23.7942C55.5727 23.851 55.5441 23.8795 55.4868 23.8795H55.4336C55.3763 23.8795 55.3477 23.851 55.3477 23.7942V22.6648C55.3477 22.6079 55.3763 22.5795 55.4336 22.5795H55.4868C55.5441 22.5795 55.5727 22.6079 55.5727 22.6648ZM56.1374 23.1076V23.1685C56.1374 23.2254 56.1087 23.2498 56.0515 23.2498H55.5441C55.4868 23.2498 55.4623 23.2213 55.4623 23.1685V23.1076C55.4623 23.0507 55.4909 23.0263 55.5441 23.0263H56.0515C56.1087 23.0263 56.1374 23.0548 56.1374 23.1076ZM57.2258 23.9526V24.5376C57.2258 24.8748 57.1603 25.1592 57.0294 25.3907C56.8984 25.6223 56.6775 25.8213 56.3624 25.9798C56.3051 26.0042 56.2683 25.9879 56.2438 25.9351L56.2192 25.8904C56.1947 25.8335 56.211 25.797 56.2683 25.7685C56.4565 25.671 56.5997 25.5654 56.7061 25.4517C56.8125 25.3379 56.8862 25.2038 56.9312 25.0535C56.9762 24.9032 56.9966 24.7326 56.9966 24.5335V23.9485C56.9966 23.8917 57.0253 23.8632 57.0785 23.8632H57.1398C57.1971 23.8632 57.2217 23.8917 57.2217 23.9485L57.2258 23.9526ZM57.9704 22.7867V22.8395C57.9704 22.8963 57.9418 22.9207 57.8845 22.9207H56.3174C56.2601 22.9207 56.2315 22.8923 56.2315 22.8395V22.7867C56.2315 22.7298 56.2601 22.7013 56.3174 22.7013H57.8845C57.9418 22.7013 57.9704 22.7298 57.9704 22.7867ZM57.8149 23.4204C57.8436 23.4488 57.86 23.4854 57.86 23.5382V25.1429C57.86 25.1998 57.8313 25.2242 57.7781 25.2242H57.7167C57.6595 25.2242 57.6349 25.1957 57.6349 25.1429V23.5992H56.5875V25.1429C56.5875 25.1998 56.5588 25.2242 56.5056 25.2242H56.4443C56.387 25.2242 56.3624 25.1957 56.3624 25.1429V23.5382C56.3624 23.4895 56.3747 23.4488 56.4033 23.4204C56.432 23.392 56.4688 23.3798 56.522 23.3798H57.7045C57.7536 23.3798 57.7904 23.392 57.819 23.4204H57.8149ZM57.2217 22.8963V23.4001C57.2217 23.457 57.193 23.4854 57.1398 23.4854H57.0866C57.0294 23.4854 57.0007 23.457 57.0007 23.4001V22.8963C57.0007 22.8395 57.0294 22.8151 57.0866 22.8151H57.1398C57.1971 22.8151 57.2217 22.8435 57.2217 22.8963ZM57.9295 25.9229L57.9009 25.9595C57.8559 26.0001 57.8109 26.0001 57.774 25.9595L57.3035 25.4557C57.2667 25.411 57.2667 25.3704 57.3035 25.3257L57.3321 25.2892C57.3771 25.2485 57.4221 25.2485 57.459 25.2892L57.9295 25.7929C57.9704 25.8376 57.9704 25.8823 57.9295 25.9188V25.9229Z" fill="white"/>
<path d="M69.2592 25.7157V25.7685C69.2592 25.8294 69.2265 25.8619 69.1651 25.8619H65.9818C65.9204 25.8619 65.8877 25.8294 65.8877 25.7685V25.7157C65.8877 25.6547 65.9204 25.6222 65.9818 25.6222H69.1651C69.2265 25.6222 69.2592 25.6547 69.2592 25.7157ZM66.3419 22.8719V23.201H69.0341C69.0955 23.201 69.1283 23.2335 69.1283 23.2944V23.3472C69.1283 23.4122 69.0955 23.4407 69.0341 23.4407H66.2764C66.215 23.4407 66.17 23.4285 66.1414 23.4C66.1127 23.3716 66.0964 23.3269 66.0964 23.266V22.8719C66.0964 22.811 66.1291 22.7785 66.1905 22.7785H66.2437C66.305 22.7785 66.3378 22.811 66.3378 22.8719H66.3419ZM69.0014 24.4644V24.5172C69.0014 24.5782 68.9687 24.6107 68.9073 24.6107H66.2396C66.1782 24.6107 66.1455 24.5782 66.1455 24.5172V24.4644C66.1455 24.4035 66.1782 24.371 66.2396 24.371H68.9073C68.9687 24.371 69.0014 24.4035 69.0014 24.4644ZM67.7003 22.6607V25.6669C67.7003 25.7279 67.6716 25.7563 67.6103 25.7563H67.5489C67.4875 25.7563 67.4589 25.7279 67.4589 25.6669V22.6607C67.4589 22.5997 67.4875 22.5713 67.5489 22.5713H67.6103C67.6716 22.5713 67.7003 22.5997 67.7003 22.6607Z" fill="white"/>
<path d="M80.4701 24.2166V24.2979C80.4701 24.3426 80.4374 24.3629 80.376 24.3629H77.6674V24.6229C77.6674 24.8829 77.6428 25.1063 77.5978 25.3013C77.5528 25.4963 77.4751 25.6913 77.3646 25.8822C77.336 25.9432 77.2909 25.9554 77.2378 25.9229L77.1846 25.8944C77.1273 25.866 77.115 25.8213 77.1477 25.7604C77.25 25.5857 77.3196 25.411 77.3605 25.2444C77.4014 25.0779 77.4219 24.8707 77.4219 24.6269V24.3019C77.4219 24.2451 77.4382 24.2004 77.4669 24.1719C77.4955 24.1435 77.5405 24.1272 77.5978 24.1272H80.3801C80.4415 24.1272 80.4742 24.1597 80.4742 24.2207L80.4701 24.2166ZM80.5233 22.9857V23.0385C80.5233 23.0994 80.4906 23.1319 80.4292 23.1319H77.3359C77.2746 23.1319 77.2418 23.0994 77.2418 23.0385V22.9857C77.2418 22.9247 77.2746 22.8922 77.3359 22.8922H80.4292C80.4906 22.8922 80.5233 22.9247 80.5233 22.9857ZM78.0806 23.3635L78.277 23.8022C78.3016 23.8591 78.2852 23.8957 78.232 23.9241L78.1788 23.9485C78.1215 23.9729 78.0806 23.9566 78.052 23.8997L77.8597 23.461C77.8351 23.4041 77.8515 23.3676 77.9047 23.3391L77.9579 23.3147C78.0152 23.2904 78.0561 23.3066 78.0806 23.3635ZM79.0053 22.6769V22.9207C79.0053 22.9816 78.9767 23.0101 78.9153 23.0101H78.8539C78.7926 23.0101 78.7639 22.9816 78.7639 22.9207V22.6769C78.7639 22.616 78.7926 22.5835 78.8539 22.5835H78.9153C78.9767 22.5835 79.0053 22.616 79.0053 22.6769ZM79.9996 23.4569L79.8073 23.8957C79.7827 23.9526 79.7418 23.9688 79.6804 23.9444L79.6273 23.9201C79.5741 23.8957 79.5577 23.8551 79.5822 23.7982L79.7786 23.3594C79.8032 23.3026 79.8441 23.2863 79.9014 23.3107L79.9546 23.3351C80.0119 23.3594 80.0241 23.4001 79.9996 23.4569Z" fill="white"/>
<path d="M89.6109 25.6913V25.7522C89.6109 25.8132 89.5781 25.8457 89.5168 25.8457H88.5511C88.4898 25.8457 88.457 25.8132 88.457 25.7522V25.6913C88.457 25.6304 88.4898 25.5979 88.5511 25.5979H89.5168C89.5781 25.5979 89.6109 25.6304 89.6109 25.6913ZM89.4267 22.7663L88.7353 23.7738L89.1444 24.0663C89.1894 24.1029 89.1976 24.1435 89.1649 24.1882L89.1281 24.241C89.0912 24.2897 89.0503 24.2938 89.0012 24.2613L88.547 23.9241C88.4611 23.8632 88.4488 23.786 88.5061 23.6966L89.2222 22.6444C89.2549 22.5916 89.2999 22.5835 89.349 22.616L89.394 22.6444C89.4431 22.6769 89.4554 22.7176 89.4227 22.7704L89.4267 22.7663ZM89.6027 23.7535L88.858 24.8057H89.5249C89.5863 24.8057 89.615 24.8341 89.615 24.8951V24.9479C89.615 25.0088 89.5863 25.0372 89.5249 25.0372H88.7312C88.6289 25.0372 88.5675 25.0129 88.543 24.9682C88.5184 24.9235 88.5348 24.8585 88.5921 24.7732L89.4063 23.6235C89.4349 23.5666 89.4758 23.5585 89.529 23.5951L89.574 23.6235C89.6231 23.6601 89.6354 23.7007 89.6027 23.7494V23.7535ZM91.8776 24.0866L91.8858 24.1394C91.894 24.2004 91.8694 24.2329 91.8081 24.241L89.8318 24.5294C89.7704 24.5376 89.7377 24.5132 89.7295 24.4522L89.7213 24.3994C89.7132 24.3385 89.7377 24.306 89.7991 24.2979L91.7753 24.0094C91.8367 24.0013 91.8694 24.0257 91.8776 24.0866ZM91.8081 23.3351V23.3879C91.8162 23.4447 91.7917 23.4772 91.7303 23.4854L89.8564 23.6722C89.7991 23.6804 89.7623 23.656 89.7541 23.5951V23.5422C89.7459 23.4854 89.7745 23.4488 89.8318 23.4407L91.7058 23.2538C91.7631 23.2457 91.7958 23.2741 91.804 23.331L91.8081 23.3351ZM91.7917 24.6797L91.8285 24.7163C91.8694 24.7651 91.8694 24.8097 91.8203 24.8463C91.5462 25.0779 91.2475 25.2729 90.9243 25.4354C90.601 25.5979 90.2614 25.7238 89.9055 25.8172C89.8482 25.8335 89.8114 25.8091 89.7991 25.7482L89.7827 25.6954C89.7786 25.6669 89.7827 25.6426 89.7909 25.6222C89.8032 25.6019 89.8236 25.5897 89.8482 25.5816C90.2001 25.4963 90.5274 25.3744 90.8383 25.2201C91.1493 25.0657 91.4194 24.8829 91.6526 24.6716C91.7017 24.631 91.7467 24.631 91.7835 24.6716L91.7917 24.6797ZM90.6256 22.6444V23.5341C90.6256 23.9322 90.6706 24.2735 90.7647 24.5579C90.8588 24.8422 90.9938 25.0819 91.1698 25.2729C91.3498 25.4638 91.5748 25.6141 91.8449 25.7238C91.9022 25.7482 91.9185 25.7888 91.8981 25.8497L91.8735 25.9026C91.849 25.9594 91.8122 25.9757 91.7549 25.9513C91.3048 25.7644 90.9611 25.4719 90.7279 25.0779C90.4947 24.6838 90.3801 24.1679 90.3801 23.5382V22.6485C90.3801 22.5876 90.4087 22.5551 90.4701 22.5551H90.5233C90.5847 22.5551 90.6174 22.5876 90.6174 22.6485L90.6256 22.6444ZM91.3171 22.6282L91.4521 22.9329C91.4766 22.9897 91.4603 23.0304 91.403 23.0507L91.3498 23.0751C91.2925 23.0994 91.2557 23.0832 91.2311 23.0263L91.0961 22.7216C91.0716 22.6647 91.0879 22.6241 91.1452 22.6038L91.1984 22.5794C91.2557 22.5551 91.2925 22.5713 91.3171 22.6282Z" fill="white"/>
<path d="M25.9696 5.91502C26.2069 6.24815 26.2151 6.73158 25.9982 7.35721C25.5604 8.65315 24.9672 9.92877 24.2225 11.1881C23.4737 12.4475 22.6145 13.6013 21.6448 14.6535C21.342 15.015 21.0187 15.0191 20.6791 14.6738L20.3886 14.365C20.0736 14.0197 20.0736 13.6581 20.3886 13.2885C21.2397 12.3663 21.9721 11.4075 22.594 10.4122C23.2159 9.4169 23.7233 8.40127 24.1243 7.36127H21.3174C20.8305 7.36127 20.5891 7.10533 20.5891 6.59346V6.17096C20.5891 5.67127 20.8305 5.4194 21.3174 5.4194H24.6685C25.2986 5.4194 25.7364 5.58596 25.9696 5.91908V5.91502ZM24.0097 2.49033L24.5948 3.72127C24.8117 4.1844 24.7094 4.52158 24.2839 4.74096L23.9197 4.9319C23.4696 5.16346 23.1423 5.04565 22.9377 4.58658L22.3526 3.37596C22.1358 2.90065 22.2421 2.56346 22.6799 2.35627L23.0441 2.16533C23.4819 1.93377 23.801 2.04346 24.0097 2.4944V2.49033ZM24.6275 11.2085V19.0775C24.6275 19.5894 24.3902 19.8494 23.9156 19.8494H23.5146C23.0277 19.8494 22.7863 19.5935 22.7863 19.0775V11.2044C22.7863 10.6925 23.0277 10.4366 23.5146 10.4366H23.9156C24.3902 10.4366 24.6275 10.6925 24.6275 11.2044V11.2085ZM26.1578 11.4969L27.1234 13.3616C27.3403 13.7597 27.2585 14.0725 26.8698 14.3041L26.5424 14.495C26.1537 14.7144 25.855 14.6169 25.6505 14.2066L24.6848 12.3581C24.468 11.9478 24.5498 11.635 24.9385 11.4156L25.2658 11.2247C25.6545 11.0053 25.9532 11.0947 26.1578 11.4928V11.4969ZM32.8435 6.64627V9.20565C32.8435 11.4644 32.4139 13.4875 31.5587 15.275C30.7036 17.0625 29.3206 18.4966 27.4139 19.5772C27.0007 19.821 26.6897 19.7194 26.4851 19.2685L26.301 18.8825C26.1169 18.4478 26.2274 18.1066 26.6283 17.8628C28.2077 16.9406 29.3329 15.7585 30.008 14.3244C30.6831 12.8863 31.0187 11.18 31.0187 9.20565V6.64627C31.0187 6.14658 31.256 5.89471 31.7306 5.89471H32.1316C32.6062 5.89471 32.8435 6.14658 32.8435 6.64627ZM36.6324 4.16408V13.4956C36.6324 13.9953 36.395 14.2472 35.9204 14.2472H35.5194C35.0448 14.2472 34.8075 13.9953 34.8075 13.4956V4.6069H29.157V13.4956C29.157 13.9953 28.9197 14.2472 28.445 14.2472H28.044C27.5694 14.2472 27.3321 13.9953 27.3321 13.4956V4.16408C27.3321 3.26627 27.7576 2.81533 28.6087 2.81533H35.3517C36.2027 2.81533 36.6283 3.26627 36.6283 4.16408H36.6324ZM34.4802 14.1131V17.7328H36.7019C37.1888 17.7328 37.4302 17.9847 37.4302 18.4844V18.9069C37.4302 19.4188 37.1888 19.6788 36.7019 19.6788H33.9851C33.5473 19.6788 33.2159 19.561 32.9908 19.3213C32.7658 19.0856 32.6553 18.7403 32.6553 18.2935V14.1172C32.6553 13.6175 32.8926 13.3656 33.3672 13.3656H33.7682C34.2428 13.3656 34.4802 13.6175 34.4802 14.1172V14.1131Z" fill="white"/>
<path d="M40.9041 12.151L40.2126 14.9419C40.1144 15.3929 39.8525 15.5594 39.4311 15.4416L39.1038 15.3441C38.6782 15.2304 38.5187 14.9541 38.6291 14.5154L39.3043 11.7244C39.4147 11.2775 39.6807 11.115 40.1062 11.245L40.4335 11.3425C40.8468 11.4441 41.0064 11.7163 40.9082 12.151H40.9041ZM46.616 11.44C46.7183 11.57 46.7592 11.7488 46.7346 11.9804C46.6119 13.3779 46.2559 14.6494 45.6667 15.791C45.0775 16.9325 44.2715 17.8588 43.2527 18.5697C42.2339 19.2807 41.0186 19.7032 39.607 19.8291C39.3984 19.8819 39.2347 19.8494 39.1079 19.7316C38.981 19.6138 38.9115 19.4472 38.8992 19.2319L38.8624 18.846C38.8255 18.3829 39.026 18.1147 39.4638 18.0375C40.6299 17.871 41.616 17.5054 42.4139 16.9407C43.2158 16.376 43.8296 15.6691 44.2551 14.816C44.6806 13.9629 44.9425 12.9838 45.0366 11.8829C45.0857 11.4075 45.3271 11.1841 45.7649 11.2085L46.1291 11.245C46.3459 11.245 46.5096 11.31 46.6119 11.436L46.616 11.44ZM40.6668 4.20473V7.99504L46.0432 7.97473C46.4932 7.97473 46.7183 8.21035 46.7183 8.68566V9.10816C46.7183 9.59566 46.4932 9.83941 46.0432 9.83941L40.2494 9.85973C39.8607 9.85973 39.5579 9.74598 39.3493 9.52254C39.1365 9.2991 39.0301 8.98223 39.0301 8.56785V4.20066C39.0301 3.75379 39.2429 3.52629 39.6684 3.52629H40.0326C40.4581 3.52629 40.6709 3.74973 40.6709 4.20066L40.6668 4.20473ZM43.5841 9.24629V14.8444C43.5841 15.2954 43.3713 15.5188 42.9458 15.5188H42.5816C42.1561 15.5188 41.9434 15.2954 41.9434 14.8444V9.24629C41.9434 8.79941 42.1561 8.57191 42.5816 8.57191H42.9458C43.3713 8.57191 43.5841 8.79535 43.5841 9.24629ZM44.0955 2.95348V8.2266C44.0955 8.68973 43.8705 8.92129 43.4204 8.92129H43.0563C42.6062 8.92129 42.3812 8.68973 42.3812 8.2266V2.95348C42.3812 2.49035 42.6062 2.25879 43.0563 2.25879H43.4204C43.8705 2.25879 44.0955 2.49035 44.0955 2.95348ZM46.5178 4.85879V5.28129C46.5178 5.74441 46.3009 5.97598 45.8631 5.97598H43.8951C43.4573 5.97598 43.2404 5.74441 43.2404 5.28129V4.85879C43.2404 4.39566 43.4573 4.16816 43.8951 4.16816H45.8631C46.3009 4.16816 46.5178 4.39973 46.5178 4.85879ZM52.1478 9.7866V12.3663C52.1478 14.0725 51.8246 15.5269 51.1822 16.7335C50.5398 17.94 49.4433 18.9516 47.9007 19.7722C47.4752 19.9916 47.1765 19.8738 47.0088 19.4269L46.8615 19.0816C46.6774 18.6591 46.796 18.3382 47.2093 18.1188C48.048 17.6719 48.6986 17.1763 49.161 16.636C49.6233 16.0957 49.9466 15.4863 50.1348 14.8079C50.323 14.1294 50.4171 13.3129 50.4171 12.3663V9.7866C50.4171 9.32348 50.6339 9.09191 51.0718 9.09191H51.4727C51.9228 9.09191 52.1478 9.32348 52.1478 9.7866ZM55.593 3.47348V3.85941C55.593 4.32254 55.3761 4.5541 54.9383 4.5541H47.6675C47.2297 4.5541 47.0129 4.32254 47.0129 3.85941V3.47348C47.0129 3.01035 47.2297 2.77879 47.6675 2.77879H54.9383C55.3761 2.77879 55.593 3.01035 55.593 3.47348ZM54.8565 6.61785C55.0693 6.84129 55.1756 7.16223 55.1756 7.57254V15.2304C55.1756 15.6935 54.9588 15.925 54.521 15.925H54.12C53.6699 15.925 53.4449 15.6935 53.4449 15.2304V8.05191H49.1078V15.2304C49.1078 15.6935 48.8827 15.925 48.4327 15.925H48.0317C47.5939 15.925 47.377 15.6935 47.377 15.2304V7.56848C47.377 7.15816 47.4793 6.84129 47.688 6.61379C47.8926 6.39035 48.1994 6.2766 48.6004 6.2766H53.9563C54.345 6.2766 54.6437 6.39035 54.8565 6.61379V6.61785ZM52.1315 4.37535V6.45129C52.1315 6.9266 51.9064 7.16223 51.4564 7.16223H51.0922C50.6544 7.16223 50.4375 6.9266 50.4375 6.45129V4.37535C50.4375 3.90004 50.6544 3.66441 51.0922 3.66441H51.4564C51.9064 3.66441 52.1315 3.90004 52.1315 4.37535ZM55.282 19.2116L55.0283 19.5204C54.7133 19.8657 54.3982 19.8657 54.0791 19.5204L52.1642 17.5013C51.8737 17.1804 51.8778 16.8554 52.1806 16.5182L52.4343 16.2094C52.7493 15.8641 53.0644 15.856 53.3835 16.1891L55.2779 18.2285C55.5807 18.5494 55.5807 18.8744 55.2779 19.2116H55.282Z" fill="white"/>
<path d="M66.2514 3.01037V5.1838C66.2514 11.2004 63.6533 15.986 58.4528 19.5366C58.0396 19.8169 57.7 19.7397 57.434 19.3051L57.2171 18.9191C56.9635 18.4844 57.0453 18.1188 57.4708 17.8222C59.8031 16.2176 61.5338 14.3894 62.6631 12.3297C63.7924 10.2701 64.357 7.88943 64.357 5.17974V3.01037C64.357 2.49849 64.5984 2.24255 65.0853 2.24255H65.5231C66.01 2.24255 66.2514 2.49849 66.2514 3.01037ZM73.469 7.08912V7.55224C73.469 8.05193 73.2317 8.3038 72.7571 8.3038H57.9618C57.4872 8.3038 57.2499 8.05193 57.2499 7.55224V7.08912C57.2499 6.58943 57.4872 6.33755 57.9618 6.33755H72.7571C73.2317 6.33755 73.469 6.58943 73.469 7.08912ZM66.5829 7.91787C66.9347 9.95724 67.659 11.7935 68.7596 13.4226C69.8602 15.0516 71.3578 16.5222 73.2522 17.8304C73.6777 18.1269 73.7636 18.4926 73.5059 18.9272L73.289 19.3132C73.0231 19.7479 72.6835 19.8251 72.2702 19.5447C70.0362 18.0172 68.2727 16.2785 66.9838 14.3204C65.695 12.3622 64.9258 10.3026 64.668 8.13318C64.5943 7.63349 64.8071 7.34505 65.3063 7.26787L65.7441 7.2313C66.2064 7.17849 66.4847 7.41005 66.5829 7.92599V7.91787Z" fill="white"/>
<path d="M80.6622 2.90467C80.8791 3.12811 80.9895 3.45311 80.9895 3.87561V18.3259C80.9895 18.7484 80.8832 19.0775 80.6704 19.309C80.4576 19.5406 80.1508 19.6544 79.7498 19.6544H78.9846C78.51 19.6544 78.2727 19.3984 78.2727 18.8865V18.464C78.2727 17.9522 78.51 17.6922 78.9846 17.6922H79.3652V4.50936H77.4503V11.054C77.4503 12.4515 77.3766 13.8247 77.2334 15.1734C77.0861 16.5222 76.8611 17.8303 76.5583 19.0978C76.4478 19.5487 76.186 19.7072 75.7768 19.5772L75.4495 19.4228C75.0362 19.2928 74.8767 19.0125 74.9749 18.5778C75.2899 17.3834 75.5109 16.1687 75.6418 14.9297C75.7686 13.6906 75.8341 12.3987 75.8341 11.054V3.87561C75.8341 3.46529 75.9405 3.14436 76.1532 2.91279C76.366 2.68123 76.6729 2.56748 77.0739 2.56748H79.7539C80.1426 2.56748 80.4453 2.68123 80.6663 2.90467H80.6622ZM80.1508 13.0731V13.4956C80.1508 13.9953 79.9093 14.2472 79.4224 14.2472H77.3439C76.857 14.2472 76.6156 13.9953 76.6156 13.4956V13.0731C76.6156 12.5612 76.857 12.3012 77.3439 12.3012H79.4224C79.9093 12.3012 80.1508 12.5572 80.1508 13.0731ZM80.1508 8.26311V8.68561C80.1508 9.19748 79.9093 9.45342 79.4224 9.45342H77.3644C76.8775 9.45342 76.6361 9.19748 76.6361 8.68561V8.26311C76.6361 7.76342 76.8775 7.51154 77.3644 7.51154H79.4224C79.9093 7.51154 80.1508 7.76342 80.1508 8.26311ZM91.996 4.58654V5.00904C91.996 5.49654 91.7669 5.74029 91.3045 5.74029H82.5566C82.0943 5.74029 81.8651 5.49654 81.8651 5.00904V4.58654C81.8651 4.09904 82.0943 3.85529 82.5566 3.85529H91.3045C91.7669 3.85529 91.996 4.09904 91.996 4.58654ZM83.8496 8.68561V17.5744H90.0443V8.68561C90.0443 8.21029 90.2693 7.97467 90.7194 7.97467H91.0836C91.5214 7.97467 91.7382 8.21029 91.7382 8.68561V18.1919C91.7382 18.6265 91.6277 18.9597 91.4109 19.1831C91.194 19.4065 90.8749 19.5203 90.4616 19.5203H83.4077C82.9944 19.5203 82.6794 19.4065 82.4584 19.175C82.2416 18.9434 82.1311 18.6184 82.1311 18.1919V8.68561C82.1311 8.21029 82.3561 7.97467 82.8062 7.97467H83.1704C83.6204 7.97467 83.8455 8.21029 83.8455 8.68561H83.8496ZM87.8594 2.98998V4.05029C87.8594 4.54998 87.622 4.80186 87.1474 4.80186H86.7464C86.2595 4.80186 86.0181 4.54998 86.0181 4.05029V2.98998C86.0181 2.47811 86.2595 2.22217 86.7464 2.22217H87.1474C87.622 2.22217 87.8594 2.47811 87.8594 2.98998Z" fill="white"/>
<path d="M84.2218 13.065C84.6146 12.5328 85.0074 12.0007 85.4002 11.4644C86.2431 10.3107 87.09 9.16097 87.9329 8.00722C87.9493 7.98691 87.9656 7.96254 87.9861 7.94222C88.0556 7.86504 88.1416 7.84879 88.2316 7.89347C88.3257 7.9341 88.3298 8.01941 88.3093 8.10472C88.2766 8.24691 88.2316 8.3891 88.1907 8.53129C87.9779 9.28285 87.7692 10.0303 87.5565 10.7819C87.5115 10.9403 87.4542 11.0907 87.4092 11.2491C87.3601 11.4157 87.3846 11.4685 87.5524 11.4766C87.8142 11.4888 88.0761 11.4725 88.338 11.4685C88.7144 11.4644 89.0908 11.4563 89.4673 11.4644C89.5327 11.4644 89.6064 11.5253 89.6555 11.5741C89.7127 11.6391 89.6677 11.7122 89.6227 11.7732C88.4034 13.4388 87.1841 15.1044 85.9689 16.7741C85.9566 16.7903 85.9444 16.8066 85.9321 16.8188C85.8625 16.9041 85.7766 16.9244 85.6825 16.8797C85.5802 16.831 85.5802 16.7375 85.6048 16.6482C85.6743 16.3922 85.748 16.1403 85.8216 15.8844C86.0467 15.1085 86.2676 14.3366 86.4926 13.5607C86.5049 13.5241 86.5131 13.4835 86.5172 13.4469C86.5254 13.3494 86.4804 13.2966 86.3822 13.2966C86.2103 13.2966 86.0385 13.3047 85.8666 13.3047C85.4166 13.3047 84.9665 13.3047 84.5164 13.3047C84.3977 13.3047 84.3036 13.2763 84.2341 13.1788C84.1932 13.13 84.2136 13.1016 84.2341 13.061L84.2218 13.065Z" fill="url(#paint4_linear_2167_1553)"/>
</g>
<defs>
<linearGradient id="paint0_linear_2167_1553" x1="4.4761" y1="10.0506" x2="0.28648" y2="2.74067" gradientUnits="userSpaceOnUse">
<stop stop-color="#F445B3"/>
<stop offset="1" stop-color="#FFAB15"/>
</linearGradient>
<linearGradient id="paint1_linear_2167_1553" x1="6.11265" y1="8.54751" x2="2.63547" y2="2.481" gradientUnits="userSpaceOnUse">
<stop stop-color="#F445B3"/>
<stop offset="1" stop-color="#FFAB15"/>
</linearGradient>
<linearGradient id="paint2_linear_2167_1553" x1="14.2877" y1="24.0947" x2="2.81173" y2="4.07684" gradientUnits="userSpaceOnUse">
<stop stop-color="#49B8FD"/>
<stop offset="0.29" stop-color="#9A66F9"/>
<stop offset="0.62" stop-color="#EF16FA"/>
<stop offset="1" stop-color="#FFAB15"/>
</linearGradient>
<linearGradient id="paint3_linear_2167_1553" x1="9.58684" y1="19.0734" x2="7.35643" y2="15.1799" gradientUnits="userSpaceOnUse">
<stop stop-color="#8977FA"/>
<stop offset="1" stop-color="#C33FF9"/>
</linearGradient>
<linearGradient id="paint4_linear_2167_1553" x1="85.2283" y1="10.6763" x2="88.6448" y2="14.1172" gradientUnits="userSpaceOnUse">
<stop stop-color="#49B8FD"/>
<stop offset="0.29" stop-color="#9A66F9"/>
<stop offset="0.62" stop-color="#EF16FA"/>
<stop offset="1" stop-color="#FFAB15"/>
</linearGradient>
<clipPath id="clip0_2167_1553">
<rect width="92" height="26" fill="white"/>
</clipPath>
</defs>
</svg>
