<svg width="92" height="26" viewBox="0 0 92 26" fill="none" xmlns="http://www.w3.org/2000/svg">
<g clip-path="url(#clip0_2167_1629)">
<path d="M2.89576 1.55595L0.665825 12.1185C0.649458 12.1916 0.751749 12.22 0.78039 12.151L4.58968 2.59595C4.79836 2.07595 4.65106 1.48283 4.22962 1.11314C3.76318 0.706891 3.02669 0.950641 2.89985 1.55595H2.89576Z" fill="url(#paint0_linear_2167_1629)"/>
<path d="M5.81396 0.861255L1.80008 10.8916C1.77144 10.9606 1.86964 11.0053 1.90647 10.9444L7.30331 2.17344C7.5979 1.69407 7.55699 1.08469 7.20102 0.650005C6.80822 0.17063 6.04309 0.28438 5.81396 0.861255Z" fill="url(#paint1_linear_2167_1629)"/>
<path d="M12.671 3.56282C12.6914 3.52626 12.7119 3.48563 12.7324 3.44907C14.099 0.755633 10.1628 -1.4178 8.5589 1.14157L1.30856 12.8334L0.838022 13.6906L0.702998 13.975V13.9913C0.342936 14.8119 0.113806 15.7056 0.0319732 16.6522C-0.348547 21.0153 2.70789 25.0291 7.04091 25.8538C11.3126 26.6703 15.8461 24.0744 17.1349 19.6016C17.315 18.9759 16.8608 18.3463 16.2061 18.3056H13.8575C13.4116 18.2731 12.9983 18.5331 12.8387 18.9475C12.0491 21.0072 10.0155 21.9984 8.07609 21.7263C5.27743 21.3322 3.46484 18.4153 4.63913 15.6203C5.39199 13.8328 7.27414 12.7888 9.21356 13.0244C11.153 13.26 12.5851 14.5316 13.0106 16.2825C13.117 16.7172 13.4975 17.0259 13.9476 17.0544L16.1857 17.0625C16.8485 17.1031 17.3682 16.5181 17.2618 15.8722C16.6439 12.1469 13.9598 9.40876 9.91732 8.84407C9.56544 8.79532 9.144 8.75063 9.34449 8.77907L10.8052 6.46345C11.1939 5.8622 12.1227 4.50938 12.6792 3.57095L12.671 3.56282Z" fill="url(#paint2_linear_2167_1629)"/>
<path d="M10.9683 18.0131L8.16149 19.894C7.98964 20.0078 7.77279 20.0362 7.58048 19.959C7.33498 19.8575 7.19178 19.6259 7.19178 19.3862L7.18359 15.6487C7.18359 15.4253 7.29816 15.2181 7.49046 15.1084C7.70732 14.9865 7.95691 15.0028 8.14922 15.1287L10.9602 16.9894C11.132 17.1031 11.2466 17.294 11.2466 17.5012C11.2466 17.7165 11.1402 17.9075 10.9724 18.0172L10.9683 18.0131Z" fill="url(#paint3_linear_2167_1629)"/>
<path d="M20.7944 23.2213L20.9253 24.2369C20.9294 24.2857 20.9089 24.3141 20.8558 24.3182L20.8107 24.3263C20.7616 24.3304 20.733 24.3101 20.7289 24.2572L20.6021 23.2416C20.598 23.1929 20.6184 23.1644 20.6716 23.1604L20.7166 23.1522C20.7657 23.1482 20.7903 23.1685 20.7944 23.2213ZM21.3345 22.6647V24.1638C21.3345 24.5091 21.2936 24.8219 21.2076 25.1022C21.1217 25.3785 20.9949 25.6426 20.8189 25.8904C20.7821 25.9391 20.7412 25.9432 20.6962 25.9026L20.6512 25.8741C20.6062 25.8376 20.6021 25.7929 20.6348 25.7482C20.7944 25.5288 20.9089 25.2891 20.9867 25.0372C21.0603 24.7854 21.0972 24.4969 21.0972 24.1719V22.6729C21.0972 22.6119 21.1258 22.5835 21.1872 22.5835H21.2404C21.3017 22.5835 21.3304 22.6119 21.3304 22.6729L21.3345 22.6647ZM21.4163 24.8747L21.6904 25.4069C21.7191 25.4557 21.7109 25.4963 21.6618 25.5247L21.6168 25.5491C21.5677 25.5776 21.5268 25.5694 21.4981 25.5207L21.224 24.9844C21.1954 24.9357 21.2076 24.8951 21.2526 24.8666L21.2976 24.8422C21.3508 24.8138 21.3918 24.826 21.4163 24.8747ZM21.6945 23.5504V23.6194C21.6945 23.6763 21.6659 23.7047 21.6127 23.7047H21.3058C21.2485 23.7047 21.2199 23.6763 21.2199 23.6154V23.5585C21.2199 23.4976 21.2485 23.4691 21.3058 23.4691H21.6127C21.67 23.4691 21.6945 23.4976 21.6945 23.5504ZM24.0513 24.5701V24.6229C24.0513 24.6716 24.0268 24.7001 23.9736 24.7001H21.7314C21.6823 24.7001 21.6577 24.6757 21.6577 24.6229V24.5701C21.6577 24.5213 21.6823 24.4969 21.7314 24.4969H23.9736C24.0227 24.4969 24.0513 24.5213 24.0513 24.5701ZM22.2796 24.5904L22.3165 24.6147C22.341 24.6229 22.3533 24.6391 22.3574 24.6554C22.3615 24.6716 22.3574 24.6919 22.341 24.7163C22.2223 24.9194 22.0423 25.0901 21.805 25.2322C21.76 25.2566 21.7273 25.2485 21.7068 25.2079L21.6823 25.1632C21.6577 25.1226 21.6659 25.0901 21.7068 25.0657C21.8173 24.9966 21.9114 24.9235 21.9932 24.8463C22.071 24.7691 22.1282 24.6919 22.1651 24.6269C22.1896 24.5822 22.2264 24.5701 22.2755 24.5944L22.2796 24.5904ZM22.5251 25.4394L22.5497 25.4841C22.5783 25.5288 22.5701 25.5613 22.5251 25.5938C22.4106 25.6669 22.296 25.7319 22.1773 25.7888C22.0587 25.8457 21.9523 25.8863 21.8541 25.9147C21.805 25.931 21.7682 25.9147 21.7518 25.8701L21.7395 25.8172C21.7232 25.7685 21.7395 25.7319 21.7886 25.7116C22.0014 25.6507 22.206 25.5491 22.4106 25.4151C22.4597 25.3907 22.4965 25.3988 22.5292 25.4394H22.5251ZM23.9449 24.0744V24.1191C23.9449 24.1679 23.9204 24.1963 23.8672 24.1963H21.8377C21.7886 24.1963 21.76 24.1719 21.76 24.1191V24.0744C21.76 24.0257 21.7845 24.0013 21.8377 24.0013H23.8672C23.9163 24.0013 23.9449 24.0257 23.9449 24.0744ZM21.9687 22.6647H23.7362C23.8385 22.6647 23.8876 22.7135 23.8876 22.8151V23.5626C23.8876 23.6641 23.8385 23.7129 23.7362 23.7129H21.9687C21.8664 23.7129 21.8173 23.6641 21.8173 23.5626V22.8151C21.8173 22.7135 21.8664 22.6647 21.9687 22.6647ZM23.7731 23.1726V23.2091C23.7731 23.2579 23.7485 23.2822 23.6994 23.2822H22.0014C21.9564 23.2822 21.9318 23.2579 21.9318 23.2091V23.1726C21.9318 23.1238 21.9564 23.0994 22.0014 23.0994H23.6994C23.7485 23.0994 23.7731 23.1238 23.7731 23.1726ZM23.6544 22.8516H22.0464V23.526H23.6544V22.8516ZM22.3001 24.9682L22.4351 25.216C22.4638 25.2647 22.4515 25.3013 22.4065 25.3257L22.3615 25.3501C22.3165 25.3785 22.2796 25.3663 22.251 25.3176L22.1119 25.0738C22.0873 25.0251 22.0996 24.9885 22.1446 24.9601L22.1896 24.9357C22.2346 24.9113 22.2714 24.9235 22.3001 24.9682ZM22.5088 23.7047V24.501C22.5088 24.5579 22.4801 24.5822 22.4269 24.5822H22.3656C22.3083 24.5822 22.2837 24.5538 22.2837 24.501V23.7047C22.2837 23.6479 22.3124 23.6235 22.3656 23.6235H22.4269C22.4842 23.6235 22.5088 23.6519 22.5088 23.7047ZM22.9711 24.956V25.8497C22.9711 25.9554 22.9179 26.0082 22.8075 26.0082H22.5701C22.5129 26.0082 22.4883 25.9797 22.4883 25.9269V25.8741C22.4883 25.8172 22.5169 25.7929 22.5701 25.7929H22.7461V24.956C22.7461 24.8991 22.7747 24.8707 22.832 24.8707H22.8852C22.9425 24.8707 22.9711 24.8991 22.9711 24.956ZM23.6176 25.606C23.7281 25.6588 23.8222 25.6954 23.904 25.7157C23.9531 25.736 23.9695 25.7726 23.949 25.8213L23.9408 25.8741C23.9204 25.9229 23.8835 25.9351 23.8344 25.9147C23.593 25.8335 23.3721 25.7238 23.1716 25.5938C23.1266 25.5654 23.1184 25.5329 23.1471 25.4882L23.1716 25.4435C23.2002 25.4029 23.2371 25.3907 23.2862 25.4191C23.3966 25.4882 23.5071 25.5532 23.6176 25.606ZM23.4212 23.7088V24.5051C23.4212 24.5619 23.3926 24.5863 23.3394 24.5863H23.278C23.2207 24.5863 23.1921 24.5579 23.1921 24.5051V23.7088C23.1921 23.6519 23.2207 23.6276 23.278 23.6276H23.3394C23.3966 23.6276 23.4212 23.656 23.4212 23.7088ZM23.5849 25.0738L23.4457 25.3176C23.4212 25.3663 23.3844 25.3785 23.3353 25.3501L23.2903 25.3257C23.2412 25.3013 23.233 25.2647 23.2616 25.216L23.4007 24.9682C23.4253 24.9194 23.4621 24.9113 23.5112 24.9357L23.5562 24.9601C23.6012 24.9885 23.6135 25.0251 23.5849 25.0738ZM23.4785 24.5904C23.4785 24.5904 23.5112 24.6066 23.5235 24.6229C23.5849 24.7204 23.6585 24.8097 23.7444 24.8829C23.8263 24.9601 23.9122 25.021 23.9981 25.0697C24.039 25.0941 24.0513 25.1266 24.0227 25.1672L23.9981 25.2119C23.9736 25.2566 23.9367 25.2607 23.8917 25.2363C23.7772 25.1672 23.6749 25.0901 23.5808 25.0007C23.4867 24.9113 23.4089 24.8179 23.3516 24.7163C23.3271 24.6757 23.3353 24.6432 23.3803 24.6188L23.4171 24.5944C23.4171 24.5944 23.458 24.5822 23.4744 24.5863L23.4785 24.5904Z" fill="#272727"/>
<path d="M32.2959 25.1551C32.2673 25.3907 32.2223 25.6019 32.165 25.7929C32.1527 25.8498 32.12 25.866 32.0668 25.8538L32.0218 25.8376C31.9686 25.8213 31.9481 25.7888 31.9645 25.7319C31.9931 25.6223 32.0218 25.5166 32.0422 25.411C32.0627 25.3054 32.075 25.2119 32.0831 25.1348C32.0913 25.0779 32.1241 25.0535 32.1772 25.0616L32.2223 25.0698C32.2795 25.0738 32.3041 25.1023 32.3 25.1551H32.2959ZM33.7975 24.6676V24.7204C33.7975 24.7773 33.7689 24.8016 33.7157 24.8016H32.0463C31.989 24.8016 31.9645 24.7732 31.9645 24.7204V24.6676C31.9645 24.6107 31.9931 24.5863 32.0463 24.5863H33.7157C33.773 24.5863 33.7975 24.6148 33.7975 24.6676ZM33.7812 22.941V22.9938C33.7812 23.0507 33.7566 23.0751 33.7034 23.0751H32.0627C32.0054 23.0751 31.9809 23.0466 31.9809 22.9938V22.941C31.9809 22.8841 32.0095 22.8598 32.0627 22.8598H33.7034C33.7566 22.8598 33.7812 22.8882 33.7812 22.941ZM33.7239 23.5504V23.6032C33.7239 23.6601 33.6993 23.6844 33.6461 23.6844H32.12C32.0668 23.6844 32.0422 23.656 32.0422 23.6032V23.5504C32.0422 23.4935 32.0668 23.4691 32.12 23.4691H33.6461C33.6993 23.4691 33.7239 23.4976 33.7239 23.5504ZM33.6748 24.0866V24.1313C33.6748 24.1882 33.6461 24.2126 33.5929 24.2126H32.1732C32.1159 24.2126 32.0913 24.1841 32.0913 24.1313V24.0866C32.0913 24.0298 32.12 24.0054 32.1732 24.0054H33.5929C33.6502 24.0054 33.6748 24.0338 33.6748 24.0866ZM33.0119 24.7813V25.7807C33.0119 25.8376 32.9956 25.8782 32.9669 25.9066C32.9383 25.9351 32.8974 25.9473 32.8442 25.9473H32.5619C32.5046 25.9473 32.4759 25.9188 32.4759 25.8619V25.8091C32.4759 25.7523 32.5046 25.7279 32.5619 25.7279H32.7828V24.7813C32.7828 24.7204 32.8114 24.6919 32.8687 24.6919H32.9219C32.9833 24.6919 33.0119 24.7204 33.0119 24.7813ZM32.9956 22.6688V23.4813C32.9956 23.5423 32.9669 23.5707 32.9056 23.5707H32.8524C32.791 23.5707 32.7623 23.5423 32.7623 23.4813V22.6688C32.7623 22.6079 32.791 22.5794 32.8524 22.5794H32.9056C32.9669 22.5794 32.9956 22.6079 32.9956 22.6688ZM33.6625 25.1307C33.6911 25.3176 33.728 25.4963 33.7812 25.6588C33.7934 25.7157 33.773 25.7482 33.7239 25.7604L33.6789 25.7807C33.6257 25.7969 33.5929 25.7807 33.5766 25.7238C33.5438 25.6223 33.5152 25.5207 33.4988 25.4191C33.4784 25.3176 33.4661 25.2282 33.4579 25.151C33.4497 25.0982 33.4743 25.0698 33.5316 25.0657L33.5766 25.0576C33.6298 25.0535 33.6584 25.0779 33.6666 25.1307H33.6625ZM34.6936 23.7129V24.0704C34.6936 24.4482 34.6363 24.7854 34.5217 25.0901C34.4072 25.3948 34.2231 25.671 33.9735 25.9229C33.9285 25.9676 33.8875 25.9676 33.8466 25.9229L33.818 25.8863C33.7771 25.8457 33.7771 25.801 33.818 25.7563C34.0471 25.5288 34.2108 25.2769 34.3131 25.0048C34.4113 24.7326 34.4645 24.4238 34.4645 24.0744V23.7169C34.4645 23.656 34.4931 23.6276 34.5545 23.6276H34.6077C34.669 23.6276 34.6977 23.656 34.6977 23.7169L34.6936 23.7129ZM34.2476 22.6607V22.9938H35.1478C35.2623 22.9938 35.3196 23.0507 35.3196 23.1644V23.6073C35.3196 23.6682 35.291 23.6966 35.2296 23.6966H35.1764C35.115 23.6966 35.0864 23.6682 35.0864 23.6073V23.2294H34.1862C34.0717 23.2294 34.0144 23.1726 34.0144 23.0588V22.6566C34.0144 22.5957 34.043 22.5673 34.1044 22.5673H34.1576C34.219 22.5673 34.2476 22.5957 34.2476 22.6566V22.6607ZM34.6977 24.1638C34.7059 24.4969 34.7591 24.7935 34.8573 25.0576C34.9555 25.3216 35.115 25.5532 35.3319 25.7563C35.3728 25.801 35.3728 25.8457 35.3319 25.8863L35.3032 25.9229C35.2582 25.9676 35.2132 25.9676 35.1764 25.9229C34.9309 25.6832 34.7509 25.4151 34.6363 25.1226C34.5217 24.8301 34.4645 24.5091 34.4604 24.1679C34.4563 24.1069 34.4849 24.0744 34.5463 24.0744H34.5995C34.6568 24.0744 34.6895 24.1029 34.6936 24.1638H34.6977Z" fill="#272727"/>
<path d="M44.2999 23.2619C44.3326 23.3025 44.3326 23.3635 44.2999 23.4407C44.2098 23.7047 44.083 23.9688 43.9193 24.2247C43.7557 24.4807 43.5675 24.7163 43.3506 24.9316C43.3097 24.9763 43.2688 24.9763 43.2238 24.9316L43.1869 24.895C43.146 24.8544 43.146 24.8138 43.1869 24.765C43.3874 24.566 43.5593 24.3507 43.7107 24.1272C43.858 23.9038 43.9766 23.6722 44.0625 23.4407H43.3179C43.2565 23.4407 43.2238 23.4082 43.2238 23.3472V23.2944C43.2238 23.2335 43.2565 23.201 43.3179 23.201H44.1321C44.2139 23.201 44.2712 23.2213 44.3039 23.2619H44.2999ZM43.813 22.616L43.9766 22.9491C44.0053 23.006 43.993 23.0466 43.9398 23.075L43.8866 23.0954C43.8293 23.1238 43.7884 23.1116 43.7598 23.0588L43.592 22.7257C43.5634 22.6688 43.5797 22.6282 43.6329 22.5997L43.6861 22.5754C43.7434 22.5469 43.7843 22.5591 43.813 22.6119V22.616ZM43.9684 24.2247V25.8822C43.9684 25.9432 43.9357 25.9757 43.8743 25.9757H43.8211C43.7598 25.9757 43.7311 25.9432 43.7311 25.8822V24.2247C43.7311 24.1638 43.7598 24.1313 43.8211 24.1313H43.8743C43.9357 24.1313 43.9684 24.1638 43.9684 24.2247ZM44.2917 24.3547L44.5208 24.7285C44.5494 24.7772 44.5372 24.8179 44.4881 24.8463L44.4431 24.8747C44.394 24.8991 44.353 24.8869 44.3285 24.8422L44.0994 24.4644C44.0707 24.4157 44.083 24.3791 44.1321 24.3507L44.1771 24.3222C44.2262 24.2938 44.2671 24.306 44.2917 24.3547ZM45.7033 23.3432V23.9241C45.7033 24.3588 45.6174 24.7488 45.4414 25.0941C45.2655 25.4394 44.9832 25.7116 44.5945 25.9188C44.5372 25.9472 44.4963 25.935 44.4717 25.8822L44.4431 25.8294C44.4185 25.7725 44.4349 25.7319 44.4881 25.7035C44.8359 25.5166 45.0854 25.2769 45.2409 24.9763C45.3923 24.6757 45.4701 24.3263 45.4701 23.9241V23.3432C45.4701 23.2822 45.4987 23.2497 45.5601 23.2497H45.6133C45.6746 23.2497 45.7033 23.2822 45.7033 23.3432ZM46.4971 22.9085V24.8219C46.4971 24.8829 46.4643 24.9113 46.4029 24.9113H46.3498C46.2884 24.9113 46.2597 24.8829 46.2597 24.8219V22.9613H44.93V24.8219C44.93 24.8829 44.8972 24.9113 44.8359 24.9113H44.7827C44.7213 24.9113 44.6927 24.8829 44.6927 24.8219V22.9085C44.6927 22.7947 44.7499 22.7379 44.8645 22.7379H46.3293C46.4439 22.7379 46.5011 22.7947 46.5011 22.9085H46.4971ZM46.0388 24.826V25.6994H46.6198C46.6812 25.6994 46.7098 25.7319 46.7098 25.7929V25.8457C46.7098 25.9066 46.6812 25.935 46.6198 25.935H45.9774C45.9201 25.935 45.8751 25.9229 45.8465 25.8944C45.8178 25.866 45.8015 25.8254 45.8015 25.7644V24.8219C45.8015 24.761 45.8342 24.7325 45.8956 24.7325H45.9488C46.0102 24.7325 46.0388 24.761 46.0388 24.8219V24.826Z" fill="#272727"/>
<path d="M54.9258 24.436L54.7417 25.1104C54.7253 25.1673 54.6926 25.1876 54.6353 25.1713L54.5903 25.1592C54.533 25.1429 54.5125 25.1104 54.5289 25.0576L54.713 24.3832C54.7294 24.3263 54.7621 24.306 54.8194 24.3223L54.8644 24.3345C54.9217 24.3507 54.9421 24.3832 54.9258 24.436ZM56.1614 24.3426C56.1614 24.3426 56.1819 24.3832 56.1819 24.4076C56.1574 24.6879 56.0837 24.9438 55.9569 25.1713C55.83 25.3988 55.6541 25.5857 55.4372 25.7279C55.2163 25.8701 54.9626 25.9554 54.668 25.9838C54.6435 25.992 54.623 25.9838 54.6066 25.9717C54.5903 25.9554 54.5821 25.9351 54.578 25.9107L54.5698 25.8579C54.5698 25.801 54.5944 25.7685 54.6475 25.7604C54.9094 25.7279 55.1345 25.6467 55.3268 25.5248C55.5191 25.4029 55.6664 25.2404 55.7727 25.0454C55.8791 24.8504 55.9405 24.6351 55.9569 24.3913C55.961 24.3345 55.9937 24.3101 56.0469 24.3101L56.1001 24.3182C56.1246 24.3182 56.1451 24.3263 56.1614 24.3426ZM54.848 22.9532V23.7698L56.0878 23.7576C56.1492 23.7576 56.1778 23.786 56.1778 23.8429V23.8957C56.1778 23.9567 56.1492 23.9851 56.0878 23.9851L54.7908 23.9973C54.7417 23.9973 54.7007 23.9851 54.6721 23.9567C54.6435 23.9282 54.6271 23.8876 54.6271 23.8348V22.9492C54.6271 22.8923 54.6557 22.8679 54.7089 22.8679H54.7621C54.8194 22.8679 54.8439 22.8963 54.8439 22.9492L54.848 22.9532ZM55.4945 23.912V25.1023C55.4945 25.1592 55.4659 25.1835 55.4127 25.1835H55.3595C55.3022 25.1835 55.2777 25.1551 55.2777 25.1023V23.912C55.2777 23.8551 55.3063 23.8307 55.3595 23.8307H55.4127C55.47 23.8307 55.4945 23.8592 55.4945 23.912ZM55.5723 22.6648V23.7942C55.5723 23.851 55.5436 23.8795 55.4863 23.8795H55.4331C55.3759 23.8795 55.3472 23.851 55.3472 23.7942V22.6648C55.3472 22.6079 55.3759 22.5795 55.4331 22.5795H55.4863C55.5436 22.5795 55.5723 22.6079 55.5723 22.6648ZM56.1369 23.1076V23.1685C56.1369 23.2254 56.1083 23.2498 56.051 23.2498H55.5436C55.4863 23.2498 55.4618 23.2213 55.4618 23.1685V23.1076C55.4618 23.0507 55.4904 23.0263 55.5436 23.0263H56.051C56.1083 23.0263 56.1369 23.0548 56.1369 23.1076ZM57.2253 23.9526V24.5376C57.2253 24.8748 57.1598 25.1592 57.0289 25.3907C56.8979 25.6223 56.677 25.8213 56.3619 25.9798C56.3047 26.0042 56.2678 25.9879 56.2433 25.9351L56.2187 25.8904C56.1942 25.8335 56.2105 25.797 56.2678 25.7685C56.456 25.671 56.5992 25.5654 56.7056 25.4517C56.812 25.3379 56.8857 25.2038 56.9307 25.0535C56.9757 24.9032 56.9961 24.7326 56.9961 24.5335V23.9485C56.9961 23.8917 57.0248 23.8632 57.078 23.8632H57.1393C57.1966 23.8632 57.2212 23.8917 57.2212 23.9485L57.2253 23.9526ZM57.9699 22.7867V22.8395C57.9699 22.8963 57.9413 22.9207 57.884 22.9207H56.3169C56.2596 22.9207 56.231 22.8923 56.231 22.8395V22.7867C56.231 22.7298 56.2596 22.7013 56.3169 22.7013H57.884C57.9413 22.7013 57.9699 22.7298 57.9699 22.7867ZM57.8145 23.4204C57.8431 23.4488 57.8595 23.4854 57.8595 23.5382V25.1429C57.8595 25.1998 57.8308 25.2242 57.7776 25.2242H57.7163C57.659 25.2242 57.6344 25.1957 57.6344 25.1429V23.5992H56.587V25.1429C56.587 25.1998 56.5583 25.2242 56.5051 25.2242H56.4438C56.3865 25.2242 56.3619 25.1957 56.3619 25.1429V23.5382C56.3619 23.4895 56.3742 23.4488 56.4029 23.4204C56.4315 23.392 56.4683 23.3798 56.5215 23.3798H57.704C57.7531 23.3798 57.7899 23.392 57.8186 23.4204H57.8145ZM57.2212 22.8963V23.4001C57.2212 23.457 57.1925 23.4854 57.1393 23.4854H57.0862C57.0289 23.4854 57.0002 23.457 57.0002 23.4001V22.8963C57.0002 22.8395 57.0289 22.8151 57.0862 22.8151H57.1393C57.1966 22.8151 57.2212 22.8435 57.2212 22.8963ZM57.929 25.9229L57.9004 25.9595C57.8554 26.0001 57.8104 26.0001 57.7735 25.9595L57.303 25.4557C57.2662 25.411 57.2662 25.3704 57.303 25.3257L57.3316 25.2892C57.3767 25.2485 57.4217 25.2485 57.4585 25.2892L57.929 25.7929C57.9699 25.8376 57.9699 25.8823 57.929 25.9188V25.9229Z" fill="#272727"/>
<path d="M69.2602 25.7157V25.7685C69.2602 25.8294 69.2274 25.8619 69.1661 25.8619H65.9828C65.9214 25.8619 65.8887 25.8294 65.8887 25.7685V25.7157C65.8887 25.6547 65.9214 25.6222 65.9828 25.6222H69.1661C69.2274 25.6222 69.2602 25.6547 69.2602 25.7157ZM66.3428 22.8719V23.201H69.0351C69.0965 23.201 69.1292 23.2335 69.1292 23.2944V23.3472C69.1292 23.4122 69.0965 23.4407 69.0351 23.4407H66.2774C66.216 23.4407 66.171 23.4285 66.1424 23.4C66.1137 23.3716 66.0973 23.3269 66.0973 23.266V22.8719C66.0973 22.811 66.1301 22.7785 66.1915 22.7785H66.2446C66.306 22.7785 66.3388 22.811 66.3388 22.8719H66.3428ZM69.0024 24.4644V24.5172C69.0024 24.5782 68.9697 24.6107 68.9083 24.6107H66.2406C66.1792 24.6107 66.1464 24.5782 66.1464 24.5172V24.4644C66.1464 24.4035 66.1792 24.371 66.2406 24.371H68.9083C68.9697 24.371 69.0024 24.4035 69.0024 24.4644ZM67.7013 22.6607V25.6669C67.7013 25.7279 67.6726 25.7563 67.6112 25.7563H67.5499C67.4885 25.7563 67.4599 25.7279 67.4599 25.6669V22.6607C67.4599 22.5997 67.4885 22.5713 67.5499 22.5713H67.6112C67.6726 22.5713 67.7013 22.5997 67.7013 22.6607Z" fill="#272727"/>
<path d="M80.4711 24.2166V24.2979C80.4711 24.3426 80.4384 24.3629 80.377 24.3629H77.6684V24.6229C77.6684 24.8829 77.6438 25.1063 77.5988 25.3013C77.5538 25.4963 77.476 25.6913 77.3656 25.8822C77.3369 25.9432 77.2919 25.9554 77.2387 25.9229L77.1855 25.8944C77.1283 25.866 77.116 25.8213 77.1487 25.7604C77.251 25.5857 77.3206 25.411 77.3615 25.2444C77.4024 25.0779 77.4229 24.8707 77.4229 24.6269V24.3019C77.4229 24.2451 77.4392 24.2004 77.4679 24.1719C77.4965 24.1435 77.5415 24.1272 77.5988 24.1272H80.3811C80.4425 24.1272 80.4752 24.1597 80.4752 24.2207L80.4711 24.2166ZM80.5243 22.9857V23.0385C80.5243 23.0994 80.4916 23.1319 80.4302 23.1319H77.3369C77.2756 23.1319 77.2428 23.0994 77.2428 23.0385V22.9857C77.2428 22.9247 77.2756 22.8922 77.3369 22.8922H80.4302C80.4916 22.8922 80.5243 22.9247 80.5243 22.9857ZM78.0816 23.3635L78.278 23.8022C78.3025 23.8591 78.2862 23.8957 78.233 23.9241L78.1798 23.9485C78.1225 23.9729 78.0816 23.9566 78.053 23.8997L77.8607 23.461C77.8361 23.4041 77.8525 23.3676 77.9057 23.3391L77.9589 23.3147C78.0161 23.2904 78.0571 23.3066 78.0816 23.3635ZM79.0063 22.6769V22.9207C79.0063 22.9816 78.9777 23.0101 78.9163 23.0101H78.8549C78.7935 23.0101 78.7649 22.9816 78.7649 22.9207V22.6769C78.7649 22.616 78.7935 22.5835 78.8549 22.5835H78.9163C78.9777 22.5835 79.0063 22.616 79.0063 22.6769ZM80.0006 23.4569L79.8083 23.8957C79.7837 23.9526 79.7428 23.9688 79.6814 23.9444L79.6282 23.9201C79.575 23.8957 79.5587 23.8551 79.5832 23.7982L79.7796 23.3594C79.8042 23.3026 79.8451 23.2863 79.9024 23.3107L79.9556 23.3351C80.0128 23.3594 80.0251 23.4001 80.0006 23.4569Z" fill="#272727"/>
<path d="M89.6109 25.6913V25.7522C89.6109 25.8132 89.5781 25.8457 89.5168 25.8457H88.5511C88.4898 25.8457 88.457 25.8132 88.457 25.7522V25.6913C88.457 25.6304 88.4898 25.5979 88.5511 25.5979H89.5168C89.5781 25.5979 89.6109 25.6304 89.6109 25.6913ZM89.4267 22.7663L88.7353 23.7738L89.1444 24.0663C89.1894 24.1029 89.1976 24.1435 89.1649 24.1882L89.1281 24.241C89.0912 24.2897 89.0503 24.2938 89.0012 24.2613L88.547 23.9241C88.4611 23.8632 88.4488 23.786 88.5061 23.6966L89.2222 22.6444C89.2549 22.5916 89.2999 22.5835 89.349 22.616L89.394 22.6444C89.4431 22.6769 89.4554 22.7176 89.4227 22.7704L89.4267 22.7663ZM89.6027 23.7535L88.858 24.8057H89.5249C89.5863 24.8057 89.615 24.8341 89.615 24.8951V24.9479C89.615 25.0088 89.5863 25.0372 89.5249 25.0372H88.7312C88.6289 25.0372 88.5675 25.0129 88.543 24.9682C88.5184 24.9235 88.5348 24.8585 88.5921 24.7732L89.4063 23.6235C89.4349 23.5666 89.4758 23.5585 89.529 23.5951L89.574 23.6235C89.6231 23.6601 89.6354 23.7007 89.6027 23.7494V23.7535ZM91.8776 24.0866L91.8858 24.1394C91.894 24.2004 91.8694 24.2329 91.8081 24.241L89.8318 24.5294C89.7704 24.5376 89.7377 24.5132 89.7295 24.4522L89.7213 24.3994C89.7132 24.3385 89.7377 24.306 89.7991 24.2979L91.7753 24.0094C91.8367 24.0013 91.8694 24.0257 91.8776 24.0866ZM91.8081 23.3351V23.3879C91.8162 23.4447 91.7917 23.4772 91.7303 23.4854L89.8564 23.6722C89.7991 23.6804 89.7623 23.656 89.7541 23.5951V23.5422C89.7459 23.4854 89.7745 23.4488 89.8318 23.4407L91.7058 23.2538C91.7631 23.2457 91.7958 23.2741 91.804 23.331L91.8081 23.3351ZM91.7917 24.6797L91.8285 24.7163C91.8694 24.7651 91.8694 24.8097 91.8203 24.8463C91.5462 25.0779 91.2475 25.2729 90.9243 25.4354C90.601 25.5979 90.2614 25.7238 89.9055 25.8172C89.8482 25.8335 89.8114 25.8091 89.7991 25.7482L89.7827 25.6954C89.7786 25.6669 89.7827 25.6426 89.7909 25.6222C89.8032 25.6019 89.8236 25.5897 89.8482 25.5816C90.2001 25.4963 90.5274 25.3744 90.8383 25.2201C91.1493 25.0657 91.4194 24.8829 91.6526 24.6716C91.7017 24.631 91.7467 24.631 91.7835 24.6716L91.7917 24.6797ZM90.6256 22.6444V23.5341C90.6256 23.9322 90.6706 24.2735 90.7647 24.5579C90.8588 24.8422 90.9938 25.0819 91.1698 25.2729C91.3498 25.4638 91.5748 25.6141 91.8449 25.7238C91.9022 25.7482 91.9185 25.7888 91.8981 25.8497L91.8735 25.9026C91.849 25.9594 91.8122 25.9757 91.7549 25.9513C91.3048 25.7644 90.9611 25.4719 90.7279 25.0779C90.4947 24.6838 90.3801 24.1679 90.3801 23.5382V22.6485C90.3801 22.5876 90.4087 22.5551 90.4701 22.5551H90.5233C90.5847 22.5551 90.6174 22.5876 90.6174 22.6485L90.6256 22.6444ZM91.3171 22.6282L91.4521 22.9329C91.4766 22.9897 91.4603 23.0304 91.403 23.0507L91.3498 23.0751C91.2925 23.0994 91.2557 23.0832 91.2311 23.0263L91.0961 22.7216C91.0716 22.6647 91.0879 22.6241 91.1452 22.6038L91.1984 22.5794C91.2557 22.5551 91.2925 22.5713 91.3171 22.6282Z" fill="#272727"/>
<path d="M25.9696 5.91502C26.2069 6.24815 26.2151 6.73158 25.9982 7.35721C25.5604 8.65315 24.9672 9.92877 24.2225 11.1881C23.4737 12.4475 22.6145 13.6013 21.6448 14.6535C21.342 15.015 21.0187 15.0191 20.6791 14.6738L20.3886 14.365C20.0736 14.0197 20.0736 13.6581 20.3886 13.2885C21.2397 12.3663 21.9721 11.4075 22.594 10.4122C23.2159 9.4169 23.7233 8.40127 24.1243 7.36127H21.3174C20.8305 7.36127 20.5891 7.10533 20.5891 6.59346V6.17096C20.5891 5.67127 20.8305 5.4194 21.3174 5.4194H24.6685C25.2986 5.4194 25.7364 5.58596 25.9696 5.91908V5.91502ZM24.0097 2.49033L24.5948 3.72127C24.8117 4.1844 24.7094 4.52158 24.2839 4.74096L23.9197 4.9319C23.4696 5.16346 23.1423 5.04565 22.9377 4.58658L22.3526 3.37596C22.1358 2.90065 22.2421 2.56346 22.6799 2.35627L23.0441 2.16533C23.4819 1.93377 23.801 2.04346 24.0097 2.4944V2.49033ZM24.6275 11.2085V19.0775C24.6275 19.5894 24.3902 19.8494 23.9156 19.8494H23.5146C23.0277 19.8494 22.7863 19.5935 22.7863 19.0775V11.2044C22.7863 10.6925 23.0277 10.4366 23.5146 10.4366H23.9156C24.3902 10.4366 24.6275 10.6925 24.6275 11.2044V11.2085ZM26.1578 11.4969L27.1234 13.3616C27.3403 13.7597 27.2585 14.0725 26.8698 14.3041L26.5424 14.495C26.1537 14.7144 25.855 14.6169 25.6505 14.2066L24.6848 12.3581C24.468 11.9478 24.5498 11.635 24.9385 11.4156L25.2658 11.2247C25.6545 11.0053 25.9532 11.0947 26.1578 11.4928V11.4969ZM32.8435 6.64627V9.20565C32.8435 11.4644 32.4139 13.4875 31.5587 15.275C30.7036 17.0625 29.3206 18.4966 27.4139 19.5772C27.0007 19.821 26.6897 19.7194 26.4851 19.2685L26.301 18.8825C26.1169 18.4478 26.2274 18.1066 26.6283 17.8628C28.2077 16.9406 29.3329 15.7585 30.008 14.3244C30.6831 12.8863 31.0187 11.18 31.0187 9.20565V6.64627C31.0187 6.14658 31.256 5.89471 31.7306 5.89471H32.1316C32.6062 5.89471 32.8435 6.14658 32.8435 6.64627ZM36.6324 4.16408V13.4956C36.6324 13.9953 36.395 14.2472 35.9204 14.2472H35.5194C35.0448 14.2472 34.8075 13.9953 34.8075 13.4956V4.6069H29.157V13.4956C29.157 13.9953 28.9197 14.2472 28.445 14.2472H28.044C27.5694 14.2472 27.3321 13.9953 27.3321 13.4956V4.16408C27.3321 3.26627 27.7576 2.81533 28.6087 2.81533H35.3517C36.2027 2.81533 36.6283 3.26627 36.6283 4.16408H36.6324ZM34.4802 14.1131V17.7328H36.7019C37.1888 17.7328 37.4302 17.9847 37.4302 18.4844V18.9069C37.4302 19.4188 37.1888 19.6788 36.7019 19.6788H33.9851C33.5473 19.6788 33.2159 19.561 32.9908 19.3213C32.7658 19.0856 32.6553 18.7403 32.6553 18.2935V14.1172C32.6553 13.6175 32.8926 13.3656 33.3672 13.3656H33.7682C34.2428 13.3656 34.4802 13.6175 34.4802 14.1172V14.1131Z" fill="#272727"/>
<path d="M40.9046 12.151L40.2131 14.9419C40.1149 15.3929 39.853 15.5594 39.4316 15.4416L39.1043 15.3441C38.6787 15.2304 38.5192 14.9541 38.6296 14.5154L39.3047 11.7244C39.4152 11.2775 39.6812 11.115 40.1067 11.245L40.434 11.3425C40.8473 11.4441 41.0069 11.7163 40.9087 12.151H40.9046ZM46.6165 11.44C46.7188 11.57 46.7597 11.7488 46.7351 11.9804C46.6124 13.3779 46.2564 14.6494 45.6672 15.791C45.078 16.9325 44.272 17.8588 43.2532 18.5697C42.2343 19.2807 41.0191 19.7032 39.6075 19.8291C39.3989 19.8819 39.2352 19.8494 39.1084 19.7316C38.9815 19.6138 38.912 19.4472 38.8997 19.2319L38.8629 18.846C38.826 18.3829 39.0265 18.1147 39.4643 18.0375C40.6304 17.871 41.6165 17.5054 42.4144 16.9407C43.2163 16.376 43.8301 15.6691 44.2556 14.816C44.6811 13.9629 44.943 12.9838 45.0371 11.8829C45.0862 11.4075 45.3276 11.1841 45.7654 11.2085L46.1296 11.245C46.3464 11.245 46.5101 11.31 46.6124 11.436L46.6165 11.44ZM40.6673 4.20473V7.99504L46.0436 7.97473C46.4937 7.97473 46.7188 8.21035 46.7188 8.68566V9.10816C46.7188 9.59566 46.4937 9.83941 46.0436 9.83941L40.2499 9.85973C39.8612 9.85973 39.5584 9.74598 39.3498 9.52254C39.137 9.2991 39.0306 8.98223 39.0306 8.56785V4.20066C39.0306 3.75379 39.2434 3.52629 39.6689 3.52629H40.0331C40.4586 3.52629 40.6713 3.74973 40.6713 4.20066L40.6673 4.20473ZM43.5846 9.24629V14.8444C43.5846 15.2954 43.3718 15.5188 42.9463 15.5188H42.5821C42.1566 15.5188 41.9438 15.2954 41.9438 14.8444V9.24629C41.9438 8.79941 42.1566 8.57191 42.5821 8.57191H42.9463C43.3718 8.57191 43.5846 8.79535 43.5846 9.24629ZM44.096 2.95348V8.2266C44.096 8.68973 43.871 8.92129 43.4209 8.92129H43.0568C42.6067 8.92129 42.3816 8.68973 42.3816 8.2266V2.95348C42.3816 2.49035 42.6067 2.25879 43.0568 2.25879H43.4209C43.871 2.25879 44.096 2.49035 44.096 2.95348ZM46.5183 4.85879V5.28129C46.5183 5.74441 46.3014 5.97598 45.8636 5.97598H43.8955C43.4577 5.97598 43.2409 5.74441 43.2409 5.28129V4.85879C43.2409 4.39566 43.4577 4.16816 43.8955 4.16816H45.8636C46.3014 4.16816 46.5183 4.39973 46.5183 4.85879ZM52.1483 9.7866V12.3663C52.1483 14.0725 51.8251 15.5269 51.1827 16.7335C50.5403 17.94 49.4438 18.9516 47.9012 19.7722C47.4757 19.9916 47.177 19.8738 47.0093 19.4269L46.862 19.0816C46.6778 18.6591 46.7965 18.3382 47.2098 18.1188C48.0485 17.6719 48.6991 17.1763 49.1615 16.636C49.6238 16.0957 49.947 15.4863 50.1353 14.8079C50.3235 14.1294 50.4176 13.3129 50.4176 12.3663V9.7866C50.4176 9.32348 50.6344 9.09191 51.0722 9.09191H51.4732C51.9233 9.09191 52.1483 9.32348 52.1483 9.7866ZM55.5935 3.47348V3.85941C55.5935 4.32254 55.3766 4.5541 54.9388 4.5541H47.668C47.2302 4.5541 47.0134 4.32254 47.0134 3.85941V3.47348C47.0134 3.01035 47.2302 2.77879 47.668 2.77879H54.9388C55.3766 2.77879 55.5935 3.01035 55.5935 3.47348ZM54.857 6.61785C55.0698 6.84129 55.1761 7.16223 55.1761 7.57254V15.2304C55.1761 15.6935 54.9593 15.925 54.5215 15.925H54.1205C53.6704 15.925 53.4454 15.6935 53.4454 15.2304V8.05191H49.1083V15.2304C49.1083 15.6935 48.8832 15.925 48.4331 15.925H48.0322C47.5944 15.925 47.3775 15.6935 47.3775 15.2304V7.56848C47.3775 7.15816 47.4798 6.84129 47.6885 6.61379C47.8931 6.39035 48.1999 6.2766 48.6009 6.2766H53.9568C54.3455 6.2766 54.6442 6.39035 54.857 6.61379V6.61785ZM52.132 4.37535V6.45129C52.132 6.9266 51.9069 7.16223 51.4569 7.16223H51.0927C50.6549 7.16223 50.438 6.9266 50.438 6.45129V4.37535C50.438 3.90004 50.6549 3.66441 51.0927 3.66441H51.4569C51.9069 3.66441 52.132 3.90004 52.132 4.37535ZM55.2825 19.2116L55.0288 19.5204C54.7138 19.8657 54.3987 19.8657 54.0796 19.5204L52.1647 17.5013C51.8742 17.1804 51.8783 16.8554 52.1811 16.5182L52.4347 16.2094C52.7498 15.8641 53.0649 15.856 53.384 16.1891L55.2784 18.2285C55.5812 18.5494 55.5812 18.8744 55.2784 19.2116H55.2825Z" fill="#272727"/>
<path d="M66.2519 3.01037V5.1838C66.2519 11.2004 63.6537 15.986 58.4533 19.5366C58.0401 19.8169 57.7004 19.7397 57.4345 19.3051L57.2176 18.9191C56.964 18.4844 57.0458 18.1188 57.4713 17.8222C59.8035 16.2176 61.5343 14.3894 62.6636 12.3297C63.7929 10.2701 64.3575 7.88943 64.3575 5.17974V3.01037C64.3575 2.49849 64.5989 2.24255 65.0858 2.24255H65.5236C66.0105 2.24255 66.2519 2.49849 66.2519 3.01037ZM73.4695 7.08912V7.55224C73.4695 8.05193 73.2322 8.3038 72.7576 8.3038H57.9623C57.4877 8.3038 57.2504 8.05193 57.2504 7.55224V7.08912C57.2504 6.58943 57.4877 6.33755 57.9623 6.33755H72.7576C73.2322 6.33755 73.4695 6.58943 73.4695 7.08912ZM66.5833 7.91787C66.9352 9.95724 67.6594 11.7935 68.7601 13.4226C69.8607 15.0516 71.3583 16.5222 73.2527 17.8304C73.6782 18.1269 73.7641 18.4926 73.5064 18.9272L73.2895 19.3132C73.0235 19.7479 72.6839 19.8251 72.2707 19.5447C70.0367 18.0172 68.2732 16.2785 66.9843 14.3204C65.6955 12.3622 64.9262 10.3026 64.6685 8.13318C64.5948 7.63349 64.8076 7.34505 65.3068 7.26787L65.7446 7.2313C66.2069 7.17849 66.4851 7.41005 66.5833 7.92599V7.91787Z" fill="#272727"/>
<path d="M80.6627 2.90467C80.8796 3.12811 80.99 3.45311 80.99 3.87561V18.3259C80.99 18.7484 80.8836 19.0775 80.6709 19.309C80.4581 19.5406 80.1512 19.6544 79.7503 19.6544H78.9851C78.5105 19.6544 78.2732 19.3984 78.2732 18.8865V18.464C78.2732 17.9522 78.5105 17.6922 78.9851 17.6922H79.3657V4.50936H77.4508V11.054C77.4508 12.4515 77.3771 13.8247 77.2339 15.1734C77.0866 16.5222 76.8616 17.8303 76.5588 19.0978C76.4483 19.5487 76.1865 19.7072 75.7773 19.5772L75.45 19.4228C75.0367 19.2928 74.8772 19.0125 74.9754 18.5778C75.2904 17.3834 75.5113 16.1687 75.6423 14.9297C75.7691 13.6906 75.8346 12.3987 75.8346 11.054V3.87561C75.8346 3.46529 75.941 3.14436 76.1537 2.91279C76.3665 2.68123 76.6734 2.56748 77.0743 2.56748H79.7544C80.1431 2.56748 80.4458 2.68123 80.6668 2.90467H80.6627ZM80.1512 13.0731V13.4956C80.1512 13.9953 79.9098 14.2472 79.4229 14.2472H77.3444C76.8575 14.2472 76.6161 13.9953 76.6161 13.4956V13.0731C76.6161 12.5612 76.8575 12.3012 77.3444 12.3012H79.4229C79.9098 12.3012 80.1512 12.5572 80.1512 13.0731ZM80.1512 8.26311V8.68561C80.1512 9.19748 79.9098 9.45342 79.4229 9.45342H77.3649C76.878 9.45342 76.6365 9.19748 76.6365 8.68561V8.26311C76.6365 7.76342 76.878 7.51154 77.3649 7.51154H79.4229C79.9098 7.51154 80.1512 7.76342 80.1512 8.26311ZM91.9965 4.58654V5.00904C91.9965 5.49654 91.7673 5.74029 91.305 5.74029H82.5571C82.0948 5.74029 81.8656 5.49654 81.8656 5.00904V4.58654C81.8656 4.09904 82.0948 3.85529 82.5571 3.85529H91.305C91.7673 3.85529 91.9965 4.09904 91.9965 4.58654ZM83.8501 8.68561V17.5744H90.0448V8.68561C90.0448 8.21029 90.2698 7.97467 90.7199 7.97467H91.084C91.5218 7.97467 91.7387 8.21029 91.7387 8.68561V18.1919C91.7387 18.6265 91.6282 18.9597 91.4114 19.1831C91.1945 19.4065 90.8754 19.5203 90.4621 19.5203H83.4082C82.9949 19.5203 82.6799 19.4065 82.4589 19.175C82.2421 18.9434 82.1316 18.6184 82.1316 18.1919V8.68561C82.1316 8.21029 82.3566 7.97467 82.8067 7.97467H83.1709C83.6209 7.97467 83.846 8.21029 83.846 8.68561H83.8501ZM87.8598 2.98998V4.05029C87.8598 4.54998 87.6225 4.80186 87.1479 4.80186H86.7469C86.26 4.80186 86.0186 4.54998 86.0186 4.05029V2.98998C86.0186 2.47811 86.26 2.22217 86.7469 2.22217H87.1479C87.6225 2.22217 87.8598 2.47811 87.8598 2.98998Z" fill="#272727"/>
<path d="M84.2223 13.065C84.6151 12.5328 85.0079 12.0007 85.4007 11.4644C86.2435 10.3107 87.0905 9.16097 87.9334 8.00722C87.9498 7.98691 87.9661 7.96254 87.9866 7.94222C88.0561 7.86504 88.1421 7.84879 88.2321 7.89347C88.3262 7.9341 88.3303 8.01941 88.3098 8.10472C88.2771 8.24691 88.2321 8.3891 88.1912 8.53129C87.9784 9.28285 87.7697 10.0303 87.557 10.7819C87.5119 10.9403 87.4547 11.0907 87.4097 11.2491C87.3606 11.4157 87.3851 11.4685 87.5529 11.4766C87.8147 11.4888 88.0766 11.4725 88.3385 11.4685C88.7149 11.4644 89.0913 11.4563 89.4677 11.4644C89.5332 11.4644 89.6069 11.5253 89.656 11.5741C89.7132 11.6391 89.6682 11.7122 89.6232 11.7732C88.4039 13.4388 87.1846 15.1044 85.9694 16.7741C85.9571 16.7903 85.9449 16.8066 85.9326 16.8188C85.863 16.9041 85.7771 16.9244 85.683 16.8797C85.5807 16.831 85.5807 16.7375 85.6053 16.6482C85.6748 16.3922 85.7485 16.1403 85.8221 15.8844C86.0471 15.1085 86.2681 14.3366 86.4931 13.5607C86.5054 13.5241 86.5136 13.4835 86.5177 13.4469C86.5259 13.3494 86.4809 13.2966 86.3827 13.2966C86.2108 13.2966 86.039 13.3047 85.8671 13.3047C85.417 13.3047 84.967 13.3047 84.5169 13.3047C84.3982 13.3047 84.3041 13.2763 84.2346 13.1788C84.1936 13.13 84.2141 13.1016 84.2346 13.061L84.2223 13.065Z" fill="url(#paint4_linear_2167_1629)"/>
</g>
<defs>
<linearGradient id="paint0_linear_2167_1629" x1="4.47512" y1="10.0506" x2="0.285503" y2="2.74067" gradientUnits="userSpaceOnUse">
<stop stop-color="#F445B3"/>
<stop offset="1" stop-color="#FFAB15"/>
</linearGradient>
<linearGradient id="paint1_linear_2167_1629" x1="6.11265" y1="8.54751" x2="2.63547" y2="2.481" gradientUnits="userSpaceOnUse">
<stop stop-color="#F445B3"/>
<stop offset="1" stop-color="#FFAB15"/>
</linearGradient>
<linearGradient id="paint2_linear_2167_1629" x1="14.2872" y1="24.0947" x2="2.81125" y2="4.07684" gradientUnits="userSpaceOnUse">
<stop stop-color="#49B8FD"/>
<stop offset="0.29" stop-color="#9A66F9"/>
<stop offset="0.62" stop-color="#EF16FA"/>
<stop offset="1" stop-color="#FFAB15"/>
</linearGradient>
<linearGradient id="paint3_linear_2167_1629" x1="9.58537" y1="19.0734" x2="7.35496" y2="15.1799" gradientUnits="userSpaceOnUse">
<stop stop-color="#8977FA"/>
<stop offset="1" stop-color="#C33FF9"/>
</linearGradient>
<linearGradient id="paint4_linear_2167_1629" x1="85.2288" y1="10.6763" x2="88.6453" y2="14.1172" gradientUnits="userSpaceOnUse">
<stop stop-color="#49B8FD"/>
<stop offset="0.29" stop-color="#9A66F9"/>
<stop offset="0.62" stop-color="#EF16FA"/>
<stop offset="1" stop-color="#FFAB15"/>
</linearGradient>
<clipPath id="clip0_2167_1629">
<rect width="92" height="26" fill="white"/>
</clipPath>
</defs>
</svg>
