<svg width="107" height="88" viewBox="0 0 107 88" fill="none" xmlns="http://www.w3.org/2000/svg">
<path d="M14.4 20.056C18.048 20.056 20.928 21.016 23.088 22.936C25.008 24.664 25.968 26.824 25.968 29.368C25.968 31.144 25.584 32.632 24.816 33.832C23.952 35.128 22.656 36.088 20.928 36.76V36.904C22.56 37.288 24 38.248 25.152 39.784C26.496 41.416 27.168 43.288 27.168 45.448C27.168 48.472 26.064 50.92 23.856 52.84C21.6 54.712 18.432 55.672 14.4 55.672C10.32 55.672 7.152 54.712 4.944 52.84C2.736 50.92 1.632 48.472 1.632 45.448C1.632 43.288 2.304 41.416 3.648 39.784C4.8 38.248 6.192 37.288 7.872 36.904V36.76C6.144 36.088 4.848 35.128 3.984 33.832C3.216 32.632 2.832 31.144 2.832 29.368C2.832 26.824 3.792 24.664 5.712 22.936C7.824 21.016 10.752 20.056 14.4 20.056ZM14.4 24.232C12.288 24.232 10.608 24.76 9.36 25.912C8.256 26.872 7.728 28.12 7.728 29.56C7.728 31.192 8.16 32.488 9.072 33.448C10.176 34.6 11.952 35.176 14.4 35.176C16.8 35.176 18.576 34.6 19.728 33.448C20.592 32.488 21.072 31.192 21.072 29.56C21.072 28.12 20.496 26.872 19.44 25.912C18.192 24.76 16.512 24.232 14.4 24.232ZM14.4 39.064C11.904 39.064 9.984 39.64 8.736 40.888C7.44 42.04 6.816 43.528 6.816 45.448C6.816 47.224 7.44 48.664 8.784 49.768C10.08 50.872 11.952 51.448 14.4 51.448C16.8 51.448 18.72 50.872 20.112 49.768C21.36 48.664 21.984 47.224 21.984 45.448C21.984 43.528 21.36 42.04 20.112 40.936C18.768 39.688 16.896 39.064 14.4 39.064ZM43.1813 20.056C47.2133 20.056 50.3333 21.736 52.5413 25.144C54.5573 28.312 55.5653 32.536 55.5653 37.864C55.5653 43.144 54.5573 47.416 52.5413 50.584C50.3333 53.944 47.2133 55.672 43.1813 55.672C39.1493 55.672 36.0293 53.944 33.8213 50.584C31.8053 47.416 30.7973 43.192 30.7973 37.864C30.7973 32.488 31.8053 28.264 33.8213 25.144C36.0293 21.736 39.1493 20.056 43.1813 20.056ZM43.1813 24.472C40.3493 24.472 38.3813 26.008 37.2293 29.128C36.3653 31.24 35.9813 34.168 35.9813 37.864C35.9813 41.512 36.3653 44.44 37.2293 46.6C38.3813 49.672 40.3493 51.256 43.1813 51.256C45.9653 51.256 47.9813 49.672 49.1333 46.6C49.9493 44.44 50.3813 41.512 50.3813 37.864C50.3813 34.168 49.9493 31.24 49.1333 29.128C47.9813 26.008 45.9653 24.472 43.1813 24.472ZM71.9625 20.056C75.9945 20.056 79.1145 21.736 81.3225 25.144C83.3385 28.312 84.3465 32.536 84.3465 37.864C84.3465 43.144 83.3385 47.416 81.3225 50.584C79.1145 53.944 75.9945 55.672 71.9625 55.672C67.9305 55.672 64.8105 53.944 62.6025 50.584C60.5865 47.416 59.5785 43.192 59.5785 37.864C59.5785 32.488 60.5865 28.264 62.6025 25.144C64.8105 21.736 67.9305 20.056 71.9625 20.056ZM71.9625 24.472C69.1305 24.472 67.1625 26.008 66.0105 29.128C65.1465 31.24 64.7625 34.168 64.7625 37.864C64.7625 41.512 65.1465 44.44 66.0105 46.6C67.1625 49.672 69.1305 51.256 71.9625 51.256C74.7465 51.256 76.7625 49.672 77.9145 46.6C78.7305 44.44 79.1625 41.512 79.1625 37.864C79.1625 34.168 78.7305 31.24 77.9145 29.128C76.7625 26.008 74.7465 24.472 71.9625 24.472Z" fill="url(#paint0_linear_2147_4543)"/>
<path d="M101.512 48.36C101.192 48.456 100.856 48.552 100.536 48.632C100.792 49.416 100.936 50.248 100.952 51.128C100.952 52.392 100.776 53.272 100.44 53.752C100.056 54.296 99.16 54.584 97.784 54.584H97.24L96.856 53.576H97.624C98.568 53.56 99.16 53.416 99.4 53.144C99.688 52.792 99.832 52.12 99.832 51.128C99.816 50.84 99.8 50.584 99.768 50.328C97.976 51.736 95.64 52.872 92.744 53.752L92.168 52.76C95.336 51.832 97.8 50.664 99.544 49.224C99.416 48.808 99.272 48.408 99.08 48.024C97.576 49.208 95.528 50.168 92.936 50.904L92.36 49.912C95.048 49.208 97.128 48.312 98.584 47.192C98.392 46.888 98.168 46.616 97.944 46.36C97.816 46.424 97.704 46.472 97.592 46.536C96.488 47.048 95.032 47.56 93.24 48.072L92.648 47.128C94.184 46.792 95.576 46.36 96.808 45.832C97.384 45.576 97.944 45.32 98.456 45.032H94.216V43.96H103.8V45.032H100.136C99.688 45.336 99.256 45.624 98.824 45.88C99.384 46.456 99.832 47.08 100.168 47.752C101.656 47.336 103.064 46.696 104.408 45.816L105.192 46.6C104.344 47.16 103.432 47.64 102.44 48.024C103.192 50.04 104.424 51.64 106.12 52.84L105.304 53.784C103.544 52.36 102.28 50.552 101.512 48.36ZM99.192 39.816C99.384 40.264 99.56 40.776 99.736 41.336H105.752V44.12H104.616V42.408H93.384V44.12H92.248V41.336H98.584C98.408 40.856 98.216 40.408 98.024 40.024L99.192 39.816Z" fill="#2D2D2D"/>
<path d="M29.584 67.912H30.416C32.448 70.264 34.8 72.12 37.456 73.464L36.832 74.568C34.16 73.128 31.888 71.256 30 68.952C28.256 71.128 25.952 73 23.104 74.6L22.496 73.496C25.344 71.992 27.696 70.136 29.584 67.912ZM35.056 76.136V82.584H33.936V81.624H26.064V82.584H24.944V76.136H35.056ZM26.064 80.52H33.936V77.224H26.064V80.52ZM25.84 73H34.16V74.104H25.84V73ZM45.744 71.32C45.008 72.872 44.16 74.216 43.2 75.368L42.384 74.392C43.792 72.728 44.96 70.536 45.856 67.832L47.008 68.088C46.752 68.824 46.496 69.528 46.24 70.184H53.152V71.32H47.776V73.96H52.448V75.08H47.776V77.784H52.544V78.888H47.776V82.616H46.608V71.32H45.744ZM40.624 73.624C40.112 74.296 39.552 74.936 38.944 75.544L38.56 74.328C40.288 72.456 41.552 70.312 42.336 67.88L43.424 68.392C42.992 69.64 42.448 70.808 41.808 71.896V82.616H40.624V73.624ZM66.704 77.64V82.648H65.584V81.96H58.704V82.648H57.584V77.64H66.704ZM58.704 80.92H65.584V78.68H58.704V80.92ZM59.984 70.504L61.104 70.744C60.864 71.112 60.624 71.464 60.368 71.8H66.272V72.728C65.616 73.64 64.672 74.44 63.44 75.144C65.184 75.832 67.136 76.248 69.296 76.408L69.04 77.448C66.48 77.256 64.224 76.696 62.24 75.736C60.352 76.6 57.968 77.272 55.088 77.768L54.656 76.744C57.232 76.328 59.376 75.8 61.072 75.128C60.256 74.648 59.504 74.104 58.816 73.496C58.192 74.056 57.52 74.552 56.816 75L56.08 74.104C57.664 73.192 58.96 71.992 59.984 70.504ZM62.256 74.616C63.36 74.072 64.24 73.448 64.896 72.776H59.536L59.488 72.824C60.336 73.528 61.264 74.12 62.256 74.616ZM68.496 69.128V72.152H67.328V70.168H56.672V72.152H55.504V69.128H61.36C61.168 68.712 60.976 68.344 60.768 68.008L62.032 67.816C62.224 68.2 62.4 68.648 62.592 69.128H68.496ZM82.784 71.032H73.648V74.152H82.784V71.032ZM73.648 75.272C73.568 78.136 72.816 80.6 71.376 82.664L70.528 81.896C71.824 80.104 72.48 77.768 72.512 74.904V69.896H77.728C77.44 69.224 77.136 68.6 76.8 68.024L78.032 67.832C78.32 68.44 78.608 69.128 78.896 69.896H83.952V75.272H73.648Z" fill="#2D2D2D"/>
<path d="M98.18 24.78H99.94V28.94H104.1V30.7H99.94V34.88H98.18V30.7H94V28.94H98.18V24.78Z" fill="url(#paint1_linear_2147_4543)"/>
<defs>
<linearGradient id="paint0_linear_2147_4543" x1="13.3163" y1="20" x2="42.6011" y2="72.749" gradientUnits="userSpaceOnUse">
<stop stop-color="#C62EEC"/>
<stop offset="0.81" stop-color="#268CF9"/>
<stop offset="1" stop-color="#02A6FA"/>
</linearGradient>
<linearGradient id="paint1_linear_2147_4543" x1="94.9898" y1="20.4211" x2="108.175" y2="28.8497" gradientUnits="userSpaceOnUse">
<stop stop-color="#C62EEC"/>
<stop offset="0.52" stop-color="#268CF9"/>
<stop offset="1" stop-color="#02A6FA"/>
</linearGradient>
</defs>
</svg>
