<svg width="66" height="88" viewBox="0 0 66 88" fill="none" xmlns="http://www.w3.org/2000/svg">
<path d="M11.136 20.728H15.072V55H9.84V27.016C7.776 28.984 5.136 30.424 1.968 31.336V26.152C3.504 25.768 5.088 25.096 6.816 24.136C8.544 23.08 9.984 21.976 11.136 20.728ZM24.1538 20.728H44.7938V25.336H28.3778L27.3698 35.224H27.5138C28.5698 34.12 29.7698 33.352 31.1618 32.872C32.4098 32.344 33.8498 32.104 35.3858 32.104C38.6018 32.104 41.2418 33.16 43.2578 35.272C45.2738 37.384 46.3298 40.264 46.3298 43.96C46.3298 47.512 44.9858 50.392 42.3938 52.648C39.9458 54.664 37.0178 55.672 33.6098 55.672C30.5378 55.672 27.8978 54.808 25.6898 53.128C23.2418 51.304 21.8978 48.76 21.6578 45.592H26.7938C26.9858 47.512 27.7538 49 29.0498 49.96C30.2018 50.824 31.7378 51.256 33.6578 51.256C35.7698 51.256 37.5458 50.584 38.9858 49.288C40.4258 47.944 41.1458 46.216 41.1458 44.008C41.1458 41.608 40.5218 39.736 39.2738 38.392C38.0258 37.048 36.2978 36.376 33.9938 36.376C32.4578 36.376 31.1618 36.616 30.0098 37.192C28.7618 37.768 27.8498 38.68 27.1778 39.928H22.2818L24.1538 20.728Z" fill="url(#paint0_linear_2147_4527)"/>
<path d="M54.032 42.84C53.36 43.976 52.528 44.92 51.504 45.688L50.736 44.728C52.352 43.512 53.44 41.864 54 39.784L55.2 40.008C55.024 40.616 54.816 41.176 54.592 41.72H64.528V42.84H59.504V45.4H63.968V46.504H59.504V49.96H65.04V51.08H59.504V54.648H58.336V51.08H50.944V49.96H53.584V45.4H58.336V42.84H54.032ZM54.736 49.96H58.336V46.504H54.736V49.96Z" fill="#2D2D2D"/>
<path d="M8.952 74.488C8.296 76.312 7.048 77.816 5.192 79.032L4.424 78.088C6.216 76.904 7.4 75.432 7.976 73.656C8.152 73.032 8.296 72.36 8.408 71.624H3.848V82.584H2.68V70.504H8.536C8.616 69.688 8.664 68.808 8.664 67.88H9.832C9.832 68.824 9.784 69.704 9.72 70.504H15.336V80.808C15.336 81.88 14.808 82.424 13.784 82.424H11.272L10.952 81.272L13.4 81.336C13.912 81.336 14.168 81.064 14.168 80.552V71.624H9.592C9.512 72.232 9.416 72.808 9.288 73.336C10.952 74.904 12.344 76.456 13.48 77.976L12.616 78.856C11.688 77.48 10.456 76.024 8.952 74.488ZM25.192 67.848C25.384 68.264 25.56 68.744 25.736 69.272H31.544V72.12H30.424V70.344H19.576V72.2H18.456V69.272H24.536C24.344 68.824 24.152 68.424 23.96 68.056L25.192 67.848ZM24.584 72.968H25.464C26.76 74.584 29 75.992 32.168 77.208L31.544 78.152C30.904 77.896 30.312 77.64 29.768 77.384V82.616H28.664V81.944H21.512V82.616H20.392V77.32C19.736 77.64 19.08 77.912 18.408 78.168L17.8 77.224C20.728 76.136 22.984 74.728 24.584 72.968ZM21.512 80.888H28.664V78.328H21.512V80.888ZM20.424 77.304H29.592C27.64 76.344 26.104 75.224 25.016 73.976C23.736 75.32 22.2 76.424 20.424 77.304ZM26.872 71.016C28.792 72.008 30.424 73 31.736 73.992L30.936 74.776C29.768 73.816 28.168 72.808 26.136 71.736L26.872 71.016ZM23.08 71L23.848 71.688C22.488 72.872 20.824 73.912 18.84 74.808L18.152 73.912C20.104 73.08 21.736 72.12 23.08 71ZM37.048 73.768H45.016V77.016H37.048V73.768ZM43.944 76.136V74.664H38.12V76.136H43.944ZM46.536 78.104V82.616H45.432V81.96H36.744V82.616H35.624V78.104H46.536ZM36.744 80.984H45.432V79.064H36.744V80.984ZM34.12 69.032H37.72V67.96H38.872V69.032H43.128V67.96H44.28V69.032H47.88V70.04H44.28V70.984H43.128V70.04H38.872V70.984H37.72V70.04H34.12V69.032ZM47.432 71.656V74.648H46.328V72.632H35.672V74.728H34.568V71.656H47.432ZM59.48 67.976H60.616V72.408H63.624V80.952C63.624 81.976 63.16 82.504 62.232 82.504H60.632L60.328 81.4L61.864 81.448C62.264 81.448 62.472 81.192 62.472 80.696V79.016H57.592V82.552H56.44V72.408H59.48V67.976ZM57.592 76.264V78.024H62.472V76.264H57.592ZM62.472 75.272V73.496H57.592V75.272H62.472ZM57 68.584C57.512 69.4 57.992 70.296 58.456 71.272L57.528 71.736C57.064 70.728 56.568 69.832 56.024 69.048L57 68.584ZM63.08 68.44L64.04 68.888C63.64 69.864 63.128 70.808 62.504 71.736L61.56 71.256C62.2 70.296 62.696 69.368 63.08 68.44ZM51.768 67.96L52.888 68.184C52.744 68.728 52.6 69.24 52.44 69.736H55.368V70.824H52.056C51.624 71.928 51.128 72.936 50.552 73.832L49.608 73.24C50.6 71.64 51.32 69.88 51.768 67.96ZM51.288 72.968H55.096V74.008H53.432V76.024H55.64V77.096H53.432V80.856C54.152 80.6 54.888 80.248 55.624 79.816L55.816 80.84C54.808 81.4 53.64 81.864 52.312 82.216L51.832 81.224C52.152 81.112 52.312 80.952 52.312 80.744V77.096H50.104V76.024H52.312V74.008H51.288V72.968Z" fill="#2D2D2D"/>
<defs>
<linearGradient id="paint0_linear_2147_4527" x1="7.5" y1="20" x2="42" y2="55" gradientUnits="userSpaceOnUse">
<stop stop-color="#C62EEC"/>
<stop offset="0.815" stop-color="#268CF9"/>
<stop offset="1" stop-color="#02A6FA"/>
</linearGradient>
</defs>
</svg>
