<svg width="66" height="88" viewBox="0 0 66 88" fill="none" xmlns="http://www.w3.org/2000/svg">
<path d="M11.136 20.728H15.072V55H9.84V27.016C7.776 28.984 5.136 30.424 1.968 31.336V26.152C3.504 25.768 5.088 25.096 6.816 24.136C8.544 23.08 9.984 21.976 11.136 20.728ZM33.6098 20.056C37.7858 20.056 40.9538 21.544 43.1618 24.616C45.2738 27.544 46.3778 31.624 46.3778 36.904C46.3778 42.472 45.2258 46.984 42.9698 50.44C40.6178 53.896 37.4978 55.672 33.5618 55.672C26.8898 55.672 23.1458 52.552 22.2818 46.36H27.3698C28.0418 49.672 30.1538 51.352 33.6098 51.352C35.9618 51.352 37.8338 50.152 39.2738 47.848C40.6178 45.64 41.3378 42.856 41.3378 39.544C41.3378 39.352 41.2898 39.16 41.2898 38.92H41.0978C40.1378 40.408 38.8898 41.512 37.4498 42.28C36.0578 42.952 34.4738 43.336 32.6978 43.336C29.3378 43.336 26.6018 42.232 24.5858 40.072C22.6178 37.96 21.6578 35.224 21.6578 31.864C21.6578 28.408 22.7617 25.624 25.0658 23.416C27.3698 21.16 30.2018 20.056 33.6098 20.056ZM33.8018 24.376C31.6898 24.376 29.9618 25.048 28.7138 26.488C27.4178 27.88 26.7938 29.656 26.7938 31.864C26.7938 34.072 27.4178 35.8 28.7138 37.096C29.9138 38.44 31.5938 39.112 33.7538 39.112C35.8658 39.112 37.5938 38.44 38.8418 37.096C40.0898 35.752 40.7138 33.928 40.7138 31.72C40.7138 29.464 40.0418 27.688 38.7938 26.392C37.4978 25.048 35.8178 24.376 33.8018 24.376Z" fill="url(#paint0_linear_2147_4526)"/>
<path d="M54.032 42.84C53.36 43.976 52.528 44.92 51.504 45.688L50.736 44.728C52.352 43.512 53.44 41.864 54 39.784L55.2 40.008C55.024 40.616 54.816 41.176 54.592 41.72H64.528V42.84H59.504V45.4H63.968V46.504H59.504V49.96H65.04V51.08H59.504V54.648H58.336V51.08H50.944V49.96H53.584V45.4H58.336V42.84H54.032ZM54.736 49.96H58.336V46.504H54.736V49.96Z" fill="#2D2D2D"/>
<path d="M8.952 74.488C8.296 76.312 7.048 77.816 5.192 79.032L4.424 78.088C6.216 76.904 7.4 75.432 7.976 73.656C8.152 73.032 8.296 72.36 8.408 71.624H3.848V82.584H2.68V70.504H8.536C8.616 69.688 8.664 68.808 8.664 67.88H9.832C9.832 68.824 9.784 69.704 9.72 70.504H15.336V80.808C15.336 81.88 14.808 82.424 13.784 82.424H11.272L10.952 81.272L13.4 81.336C13.912 81.336 14.168 81.064 14.168 80.552V71.624H9.592C9.512 72.232 9.416 72.808 9.288 73.336C10.952 74.904 12.344 76.456 13.48 77.976L12.616 78.856C11.688 77.48 10.456 76.024 8.952 74.488ZM25.192 67.848C25.384 68.264 25.56 68.744 25.736 69.272H31.544V72.12H30.424V70.344H19.576V72.2H18.456V69.272H24.536C24.344 68.824 24.152 68.424 23.96 68.056L25.192 67.848ZM24.584 72.968H25.464C26.76 74.584 29 75.992 32.168 77.208L31.544 78.152C30.904 77.896 30.312 77.64 29.768 77.384V82.616H28.664V81.944H21.512V82.616H20.392V77.32C19.736 77.64 19.08 77.912 18.408 78.168L17.8 77.224C20.728 76.136 22.984 74.728 24.584 72.968ZM21.512 80.888H28.664V78.328H21.512V80.888ZM20.424 77.304H29.592C27.64 76.344 26.104 75.224 25.016 73.976C23.736 75.32 22.2 76.424 20.424 77.304ZM26.872 71.016C28.792 72.008 30.424 73 31.736 73.992L30.936 74.776C29.768 73.816 28.168 72.808 26.136 71.736L26.872 71.016ZM23.08 71L23.848 71.688C22.488 72.872 20.824 73.912 18.84 74.808L18.152 73.912C20.104 73.08 21.736 72.12 23.08 71ZM36.856 72.024C36.216 73.48 35.4 74.696 34.408 75.688L33.672 74.744C35.176 73.176 36.2 71.048 36.728 68.376L37.896 68.584C37.72 69.416 37.512 70.184 37.272 70.904H40.696V68.056H41.864V70.904H47.128V72.024H41.864V75.72H46.808V76.84H41.864V80.904H48.152V82.056H34.056V80.904H40.696V76.84H35.992V75.72H40.696V72.024H36.856ZM57.032 67.72C57.288 68.264 57.544 68.888 57.784 69.576H63.4V70.68H60.616C60.424 71.528 60.168 72.344 59.832 73.112H63.736V74.216H52.248V76.584C52.184 79.08 51.608 81.08 50.504 82.584L49.624 81.8C50.552 80.552 51.048 78.808 51.08 76.584V73.112H54.36L53.688 70.68H50.76V69.576H56.616C56.392 68.968 56.12 68.424 55.832 67.928L57.032 67.72ZM55.496 73.112H58.728C59.08 72.344 59.352 71.528 59.512 70.68H54.824L55.496 73.112Z" fill="#2D2D2D"/>
<defs>
<linearGradient id="paint0_linear_2147_4526" x1="-6.53298e-07" y1="38" x2="42" y2="55" gradientUnits="userSpaceOnUse">
<stop stop-color="#C62EEC"/>
<stop offset="0.865" stop-color="#268CF9"/>
<stop offset="1" stop-color="#02A6FA"/>
</linearGradient>
</defs>
</svg>
