<svg width="200" height="88" viewBox="0 0 200 88" fill="none" xmlns="http://www.w3.org/2000/svg">
<rect x="0.4" y="0.4" width="199.2" height="86.4955" rx="9.6" fill="#F3DFFF" fill-opacity="0.15" stroke="url(#paint0_linear_4237_588)" stroke-width="0.8"/>
<g clip-path="url(#clip0_4237_588)">
<path d="M140.894 29.7012H123.499V32.1848H128.776V41.3553H122.521V43.8389H128.776V58.932H131.708V43.8389H138.353V58.3588H143.63V55.8751H141.285V29.7012H140.894ZM131.512 40.9732V32.1848H138.353V41.3553H131.708V40.9732H131.512Z" fill="#253554"/>
<path d="M92.4221 51.8628H106.299V54.3465H92.4221V51.8628Z" fill="#253554"/>
<path d="M82.8451 47.2779C82.8451 51.672 82.6496 55.302 81.6724 58.1677C81.6724 58.3588 81.6724 58.3588 81.8678 58.3588C81.8678 58.3588 84.0178 58.3588 84.4087 58.3588C85.3859 54.1557 85.3859 50.7168 85.3859 48.2331H88.904V55.8751H86.5586C86.3632 55.8751 86.3632 55.8751 86.3632 56.0662L87.145 58.3588H91.6403V29.7012H83.0405L82.8451 47.2779ZM85.5814 46.1315V40.4H89.0995V46.5136H85.5814V46.1315ZM89.0995 32.1848V38.1074H85.5814V32.1848H89.0995Z" fill="#253554"/>
<path d="M107.276 39.8267H110.599V37.5341H100.631C100.826 36.7699 101.022 35.8146 101.608 35.2415H110.208V32.9489H107.863C108.058 31.6115 108.84 29.892 108.84 29.892C108.84 29.701 108.84 29.701 108.644 29.701H106.495L105.517 32.9489H102.39C102.586 31.6115 102.781 30.0831 103.172 28.7457C103.172 28.5547 103.172 28.5547 102.976 28.5547C102.781 28.5547 101.217 28.5547 100.631 28.5547C100.436 30.2741 100.24 31.8026 99.6538 33.1399H97.8947L96.9175 29.892H94.7675C94.5721 29.892 94.5721 29.892 94.5721 30.0831C94.5721 30.2741 94.963 31.8026 95.5493 33.1399H93.2039V35.4325H98.6765C98.4811 36.1967 98.2856 37.152 97.6993 37.7251H92.4221V40.0177H96.5266C94.7675 42.3103 93.2039 43.2656 92.4221 43.8388C92.4221 44.0298 92.4221 46.3224 92.4221 46.3224C92.4221 46.5135 92.6176 46.5135 92.813 46.3224C93.5948 46.1314 94.5721 45.3672 95.1584 44.603H104.735V48.0419H97.3084L97.5038 45.9403C97.5038 45.7493 97.5038 45.7493 97.3084 45.7493C97.1129 45.7493 94.963 45.7493 94.963 45.7493L94.7675 49.9524C94.7675 50.1434 94.7675 50.1434 94.963 50.1434C95.1584 50.1434 107.863 50.1434 107.863 50.1434V56.2571H102.195C101.999 56.2571 101.999 56.2571 101.999 56.4481L102.781 58.7407H110.99V48.0419H107.863V43.4567C109.035 44.4119 110.208 45.3672 111.381 45.7493C111.576 45.9403 111.772 45.9403 111.772 45.7493C111.772 45.7493 111.772 43.4567 111.772 43.2656C110.599 42.8835 108.84 41.9282 107.276 39.8267ZM104.149 39.8267C104.54 40.7819 105.322 41.7372 106.104 42.3103H97.6993C98.4811 41.5461 98.872 40.5909 99.6538 39.8267H104.149Z" fill="#253554"/>
<path d="M125.062 50.1435C125.062 50.1435 122.717 51.863 120.371 53.5825V37.5342H114.117V40.3999H117.635V55.8751C116.658 56.6393 115.876 56.8303 115.876 56.8303L117.635 58.9319L125.258 53.3914L125.062 50.1435C125.649 50.1435 125.453 49.9525 125.062 50.1435Z" fill="#253554"/>
<path d="M118.026 35.0506H120.762C121.153 35.0506 121.153 34.8596 121.153 34.8596L117.244 28.937H114.313L114.117 29.1281C114.313 29.3191 118.026 35.0506 118.026 35.0506Z" fill="#253554"/>
<path d="M171.188 30.2739H149.298V33.1397H171.188V30.2739Z" fill="#253554"/>
<path d="M157.311 43.4566H174.511V40.5908H146.171V43.4566H153.989C152.23 47.6597 148.516 57.9764 148.321 58.1675C148.321 58.3586 148.321 58.3586 148.516 58.3586H172.947C173.143 58.3586 173.143 58.1675 173.143 58.1675L169.625 48.806H166.693C166.498 48.806 166.498 48.9971 166.498 48.9971C166.498 49.1881 169.038 55.6838 169.038 55.6838H153.012L157.311 43.4566Z" fill="#253554"/>
<path d="M66.1521 54.5374C65.385 55.3016 63.8507 56.4479 61.1657 56.4479C60.015 56.4479 58.6725 56.4479 58.0971 56.4479C57.33 56.4479 51.5764 56.4479 44.6721 56.4479C49.6586 51.6716 53.8779 47.6596 54.2614 47.2775C54.645 46.8954 55.6039 45.9401 56.5629 45.1759C58.4807 43.4564 60.015 43.2654 61.3575 43.2654C63.2754 43.2654 64.8096 44.0296 66.1521 45.1759C68.8371 47.6596 68.8371 52.0537 66.1521 54.5374ZM69.4125 42.1191C67.4946 40.0175 64.6179 38.6802 61.5493 38.6802C58.8643 38.6802 56.5629 39.6354 54.4532 41.1638C53.6861 41.928 52.5354 42.6922 51.5764 43.8385C50.8093 44.6028 34.3157 60.651 34.3157 60.651C35.2746 60.8421 36.4254 60.8421 37.3843 60.8421C38.3432 60.8421 57.5218 60.8421 58.2889 60.8421C59.8232 60.8421 60.9739 60.8421 62.1246 60.651C64.6179 60.46 67.1111 59.5047 69.2207 57.5942C73.6318 53.3911 73.6318 46.3222 69.4125 42.1191Z" fill="#00A3FF"/>
<path d="M42.5625 40.9728C40.4529 39.4444 38.3432 38.6802 35.85 38.6802C32.7814 38.6802 29.9046 40.0175 27.9868 42.1191C23.7675 46.5133 23.7675 53.3911 28.1786 57.7853C30.0964 59.5047 32.0143 60.46 34.3157 60.651L38.7268 56.4479C37.9596 56.4479 37.0007 56.4479 36.2336 56.4479C33.7404 56.2569 32.2061 55.4927 31.2471 54.5374C28.5621 51.8627 28.5621 47.6596 31.0554 44.9849C32.3979 43.6475 33.9321 43.0743 35.85 43.0743C37.0007 43.0743 38.7268 43.2654 40.4529 44.9849C41.22 45.7491 43.3296 47.2775 44.0968 48.0417H44.2886L47.1654 45.1759V44.9849C45.8229 43.6475 43.7132 41.928 42.5625 40.9728Z" fill="#00C8DC"/>
<path d="M62.7 36.1967C60.5904 30.4652 55.0286 26.4531 48.6996 26.4531C41.22 26.4531 35.2746 31.9936 34.1239 38.8714C34.6993 38.8714 35.2746 38.6804 36.0418 38.6804C36.8089 38.6804 37.7679 38.8714 38.535 38.8714C39.4939 34.0952 43.7132 30.6562 48.6996 30.6562C52.9189 30.6562 56.5629 33.1399 58.2889 36.7699C58.2889 36.7699 58.4807 36.9609 58.4807 36.7699C59.8232 36.5788 61.3575 36.1967 62.7 36.1967C62.7 36.3878 62.7 36.3878 62.7 36.1967Z" fill="#006EFF"/>
</g>
<defs>
<linearGradient id="paint0_linear_4237_588" x1="0" y1="43.6478" x2="200" y2="43.6478" gradientUnits="userSpaceOnUse">
<stop stop-color="#8C3AED"/>
<stop offset="1" stop-color="#1C90F9"/>
</linearGradient>
<clipPath id="clip0_4237_588">
<rect width="153.429" height="34.3892" fill="white" transform="translate(23.0004 26.4531)"/>
</clipPath>
</defs>
</svg>
